<?xml version="1.0" encoding="utf-8"?>
<!-- Generator: Adobe Illustrator 17.0.0, SVG Export Plug-In . SVG Version: 6.00 Build 0)  -->
<!DOCTYPE svg PUBLIC "-//W3C//DTD SVG 1.1//EN" "http://www.w3.org/Graphics/SVG/1.1/DTD/svg11.dtd">
<svg version="1.1" id="Layer_1" xmlns="http://www.w3.org/2000/svg" xmlns:xlink="http://www.w3.org/1999/xlink" x="0px" y="0px"
	 width="710px" height="720px" viewBox="0 0 710 720" enable-background="new 0 0 710 720" xml:space="preserve">
<g id="Layer_1_1_">
	<circle fill="#34469D" stroke="#000000" stroke-width="2" stroke-miterlimit="10" cx="357.781" cy="367" r="341"/>
	<circle fill="none" cx="357.744" cy="378.014" r="299.012"/>
	<circle fill="#02A8E0" cx="356.986" cy="366.461" r="251.099"/>
	<circle fill="none" cx="360" cy="387" r="291"/>
	<text transform="matrix(0.1581 -0.9874 0.9874 0.1581 71.7261 346.5498)"><tspan x="0" y="0" fill="#FFFFFF" font-family="'TimesNewRomanPSMT'" font-size="48"> </tspan><tspan x="11.684" y="-0.006" fill="#FFFFFF" font-family="'TimesNewRomanPSMT'" font-size="48" rotate="2.309"> </tspan><tspan x="23.345" y="0.457" fill="#FFFFFF" font-family="'TimesNewRomanPSMT'" font-size="48" rotate="4.621"> </tspan><tspan x="34.751" y="0.908" fill="#FFFFFF" font-family="'TimesNewRomanPSMT'" font-size="48" rotate="9.127">D</tspan><tspan x="68.123" y="6.37" fill="#FFFFFF" font-family="'TimesNewRomanPSMT'" font-size="48" rotate="15.296">E</tspan><tspan x="95.696" y="13.94" fill="#FFFFFF" font-family="'TimesNewRomanPSMT'" font-size="48" rotate="20.682">P</tspan><tspan x="120.028" y="22.866" fill="#FFFFFF" font-family="'TimesNewRomanPSMT'" font-size="48" rotate="26.555">A</tspan><tspan x="150.246" y="37.998" fill="#FFFFFF" font-family="'TimesNewRomanPSMT'" font-size="48" rotate="32.912">R</tspan><tspan x="176.454" y="54.995" fill="#FFFFFF" font-family="'TimesNewRomanPSMT'" font-size="48" rotate="38.757">T</tspan><tspan x="198.905" y="72.434" fill="#FFFFFF" font-family="'TimesNewRomanPSMT'" font-size="48" rotate="45.623">M</tspan><tspan x="227.85" y="102.507" fill="#FFFFFF" font-family="'TimesNewRomanPSMT'" font-size="48" rotate="52.519">E</tspan><tspan x="245.343" y="125.009" fill="#FFFFFF" font-family="'TimesNewRomanPSMT'" font-size="48" rotate="58.677">N</tspan><tspan x="262.84" y="153.95" fill="#FFFFFF" font-family="'TimesNewRomanPSMT'" font-size="48" rotate="64.852">T</tspan><tspan x="274.806" y="180.103" fill="#FFFFFF" font-family="'TimesNewRomanPSMT'" font-size="48" rotate="68.838"> </tspan><tspan x="279.033" y="191.005" fill="#FFFFFF" font-family="'TimesNewRomanPSMT'" font-size="48" rotate="71.15"> </tspan><tspan x="282.814" y="202.058" fill="#FFFFFF" font-family="'TimesNewRomanPSMT'" font-size="48" rotate="73.454"> </tspan><tspan x="286.145" y="213.252" fill="#FFFFFF" font-family="'TimesNewRomanPSMT'" font-size="48" rotate="75.747"> </tspan><tspan x="289.027" y="224.573" fill="#FFFFFF" font-family="'TimesNewRomanPSMT'" font-size="48" rotate="78.028"> </tspan><tspan x="291.42" y="235.986" fill="#FFFFFF" font-family="'TimesNewRomanPSMT'" font-size="48" rotate="79.973"> </tspan><tspan x="293.836" y="247.182" fill="#FFFFFF" font-family="'TimesNewRomanPSMT'" font-size="48" rotate="84.698">O</tspan><tspan x="296.805" y="280.9" fill="#FFFFFF" font-family="'TimesNewRomanPSMT'" font-size="48" rotate="90.562">F</tspan><tspan x="296.326" y="307.083" fill="#FFFFFF" font-family="'TimesNewRomanPSMT'" font-size="48" rotate="94.291"> </tspan><tspan x="295.459" y="318.723" fill="#FFFFFF" font-family="'TimesNewRomanPSMT'" font-size="48" rotate="96.606"> </tspan><tspan x="294.123" y="330.315" fill="#FFFFFF" font-family="'TimesNewRomanPSMT'" font-size="48" rotate="98.922"> </tspan><tspan x="292.315" y="341.877" fill="#FFFFFF" font-family="'TimesNewRomanPSMT'" font-size="48" rotate="101.243"> </tspan><tspan x="290.049" y="353.31" fill="#FFFFFF" font-family="'TimesNewRomanPSMT'" font-size="48" rotate="103.554"> </tspan><tspan x="287.313" y="364.683" fill="#FFFFFF" font-family="'TimesNewRomanPSMT'" font-size="48" rotate="105.87"> </tspan><tspan x="284.13" y="375.905" fill="#FFFFFF" font-family="'TimesNewRomanPSMT'" font-size="48" rotate="108.175"> </tspan><tspan x="280.779" y="386.926" fill="#FFFFFF" font-family="'TimesNewRomanPSMT'" font-size="48" rotate="111.893">F</tspan><tspan x="270.881" y="411.096" fill="#FFFFFF" font-family="'TimesNewRomanPSMT'" font-size="48" rotate="115.976">I</tspan><tspan x="264.313" y="425.057" fill="#FFFFFF" font-family="'TimesNewRomanPSMT'" font-size="48" rotate="120.048">S</tspan><tspan x="251.541" y="447.621" fill="#FFFFFF" font-family="'TimesNewRomanPSMT'" font-size="48" rotate="125.896">H</tspan><tspan x="231.787" y="475.002" fill="#FFFFFF" font-family="'TimesNewRomanPSMT'" font-size="48" rotate="132.498">A</tspan><tspan x="208.918" y="499.922" fill="#FFFFFF" font-family="'TimesNewRomanPSMT'" font-size="48" rotate="138.873">R</tspan><tspan x="185.103" y="520.327" fill="#FFFFFF" font-family="'TimesNewRomanPSMT'" font-size="48" rotate="143.475">I</tspan><tspan x="172.887" y="529.718" fill="#FFFFFF" font-family="'TimesNewRomanPSMT'" font-size="48" rotate="147.837">E</tspan><tspan x="148.682" y="544.907" fill="#FFFFFF" font-family="'TimesNewRomanPSMT'" font-size="48" rotate="153.241">S</tspan></text>
</g>
<g id="Layer_3">
	<g>
		<path fill="none" d="M111.588,355.395c19.712,2.06,27.104,24.72,46.817,32.96c34.497,16.48,81.314,6.18,101.027-22.661
			c9.857-12.36,34.497-14.42,41.889,0c7.392,10.3,14.784,16.48,27.105,22.661c34.497,16.48,81.314,6.18,101.027-22.661
			c9.856-14.42,36.961-14.42,46.817,0c7.392,10.3,14.784,16.48,27.105,22.661c34.497,16.481,81.314,6.18,101.027-22.66
			c1.284-2.146,2.795-3.849,4.485-5.212c-3.456-135.715-114.556-244.67-251.104-244.67c-134.718,0-244.655,106.057-250.897,239.23
			C108.461,355.093,110.035,355.209,111.588,355.395z M567.438,334.794c0,11.377-11.032,20.6-24.64,20.6
			c-13.608,0-24.64-9.223-24.64-20.6s11.032-20.6,24.64-20.6S567.438,323.417,567.438,334.794z M518.158,231.793
			c13.608,0,24.64,9.223,24.64,20.6s-11.032,20.6-24.64,20.6c-13.608,0-24.64-9.223-24.64-20.6
			C493.518,241.016,504.55,231.793,518.158,231.793z M370.315,272.994c13.608,0,24.64,9.223,24.64,20.6s-11.032,20.6-24.64,20.6
			s-24.64-9.223-24.64-20.6C345.675,282.217,356.706,272.994,370.315,272.994z"/>
		<path fill="#CEECF8" d="M604.4,365.695c-19.713,28.84-66.529,39.14-101.027,22.66c-12.321-6.18-19.713-12.36-27.105-22.661
			c-9.856-14.42-36.961-14.42-46.817,0c-19.713,28.841-66.529,39.14-101.027,22.661c-12.321-6.18-19.713-12.36-27.105-22.661
			c-7.392-14.42-32.032-12.36-41.889,0c-19.713,28.841-66.529,39.14-101.027,22.661c-19.713-8.24-27.105-30.9-46.817-32.96
			c-1.553-0.186-3.127-0.302-4.704-0.352c-0.186,3.963-0.29,7.948-0.29,11.958c0,66.05,25.506,126.133,67.189,170.972
			c31.908,7.736,68.744-3.343,85.649-28.077c2.465-4.119,7.392-6.18,12.321-8.24c1.67-1.396,7.863-1.846,9.381-1.99
			c-0.652-0.045-1.315-0.069-1.989-0.069c2.381,0,2.711,0,1.989,0.069c20.793,1.421,30.568,24.902,47.291,32.892
			c34.497,16.479,81.314,6.18,101.027-22.661c9.856-14.42,36.961-14.42,46.817,0c7.392,10.3,14.784,16.48,27.105,22.661
			c11.197,5.349,23.692,7.86,36.136,7.848c43.035-45.086,69.461-106.16,69.461-173.406c0-2.179-0.028-4.352-0.083-6.517
			C607.195,361.846,605.684,363.549,604.4,365.695z"/>
		<path fill="#CEECF8" d="M279.145,499.596c0.675,0,1.337,0.025,1.989,0.069C281.856,499.596,281.526,499.596,279.145,499.596z"/>
		
			<linearGradient id="SVGID_1_" gradientUnits="userSpaceOnUse" x1="-313.2846" y1="648.173" x2="-300.4343" y2="661.0234" gradientTransform="matrix(30 0 0 -30 9479.5791 20144.0664)">
			<stop  offset="0" style="stop-color:#46C8F3"/>
			<stop  offset="1" style="stop-color:#E8D9EB"/>
		</linearGradient>
		<path fill="url(#SVGID_1_)" d="M279.145,499.596c0.675,0,1.337,0.025,1.989,0.069
			C281.856,499.596,281.526,499.596,279.145,499.596z"/>
		<path fill="#CEECF8" d="M503.374,532.557c-12.321-6.18-19.713-12.36-27.105-22.661c-9.856-14.42-36.961-14.42-46.817,0
			c-19.713,28.841-66.529,39.14-101.027,22.661c-16.723-7.99-26.498-31.471-47.291-32.892c-1.518,0.145-7.711,0.594-9.381,1.99
			c-4.928,2.06-9.856,4.12-12.321,8.24c-16.906,24.734-53.741,35.812-85.649,28.077c45.866,49.338,111.321,80.216,183.998,80.216
			c71.481,0,135.987-29.859,181.729-77.783C527.065,540.417,514.571,537.906,503.374,532.557z"/>
		
			<linearGradient id="SVGID_2_" gradientUnits="userSpaceOnUse" x1="-311.3519" y1="646.2402" x2="-298.5015" y2="659.0906" gradientTransform="matrix(30 0 0 -30 9479.5791 20144.0664)">
			<stop  offset="0" style="stop-color:#46C8F3"/>
			<stop  offset="1" style="stop-color:#E8D9EB"/>
		</linearGradient>
		<path fill="url(#SVGID_2_)" d="M503.374,532.557c-12.321-6.18-19.713-12.36-27.105-22.661c-9.856-14.42-36.961-14.42-46.817,0
			c-19.713,28.841-66.529,39.14-101.027,22.661c-16.723-7.99-26.498-31.471-47.291-32.892c-1.518,0.145-7.711,0.594-9.381,1.99
			c-4.928,2.06-9.856,4.12-12.321,8.24c-16.906,24.734-53.741,35.812-85.649,28.077c45.866,49.338,111.321,80.216,183.998,80.216
			c71.481,0,135.987-29.859,181.729-77.783C527.065,540.417,514.571,537.906,503.374,532.557z"/>
		<ellipse fill="#72D0F1" cx="370.315" cy="293.594" rx="24.64" ry="20.6"/>
		<ellipse fill="#72D0F1" cx="542.798" cy="334.794" rx="24.64" ry="20.6"/>
		<ellipse fill="#72D0F1" cx="518.158" cy="252.393" rx="24.64" ry="20.6"/>
	</g>
</g>
<g id="Layer_2">
	<path fill="#375AA9" d="M323.56,184.046c0,0,12.89-21.837,31.936-34.15c28.569-18.469,59.929-11.735,78.399,16.836
		c12.337,19.083,5.579,50.406,5.579,50.406L323.56,184.046z"/>
	<g>
		<path fill="#2C429B" d="M341.909,174.981l3.366-15.68c0.931-4.331,5.195-7.087,9.524-6.157s7.087,5.195,6.157,9.524l-3.368,15.68
			c-0.93,4.33-5.193,7.086-9.523,6.156C343.736,183.574,340.98,179.311,341.909,174.981z"/>
		<path fill="#2C429B" d="M367.112,172.191l3.367-15.679c0.931-4.331,5.195-7.087,9.524-6.157c4.33,0.93,7.086,5.193,6.156,9.523
			l-3.367,15.681c-0.93,4.33-5.193,7.086-9.523,6.156S366.182,176.52,367.112,172.191z"/>
		<path fill="#2C429B" d="M390.343,178.587l5.338-24.866c0.93-4.33,5.195-7.087,9.524-6.157s7.087,5.195,6.157,9.524l-5.341,24.865
			c-0.93,4.33-5.193,7.086-9.523,6.156S389.414,182.917,390.343,178.587z"/>
		<path fill="#2C429B" d="M412.179,191.478l5.339-24.867c0.93-4.33,5.193-7.086,9.523-6.156c4.33,0.93,7.087,5.195,6.157,9.524
			l-5.339,24.864c-0.93,4.33-5.193,7.086-9.524,6.157C414.005,200.071,411.249,195.807,412.179,191.478z"/>
	</g>
	<path fill="#9ECCEE" d="M203.187,262.521c-1.077-9.632,2.289-19.232,9.147-26.084c10.993-11.005,13.204-16.029,51.295-40.654
		c47.618-30.783,148.43-41.942,185.369,15.198s-11.256,128.805-49.35,153.431c-28.569,18.469-53.772,21.259-53.772,21.259
		s6.773,25.038,2.628,45.098c-1.758,8.539-8.813,14.974-17.477,15.94c-8.279,0.948-16.273-3.354-20.042-10.786
		c-4.85-9.662-1.776-32.273,0.165-41.307c0,0-22.863,1.505-37.41-16.324c-5.359-6.463-6.122-15.581-1.911-22.843
		c4.017-6.86,11.765-10.632,19.643-9.564c13.068,1.818,34.343,8.754,42.091,20.74c0,0,85.709-55.408,61.083-93.501
		c0,0-31.36-6.734-59.929,11.735c-18.022,11.651-71.688,45.02-121.82-2.649C207.449,276.992,204.01,270.021,203.187,262.521z"/>
	<path fill="#CAE4F7" d="M310.247,216.897c-2.633,1.702-3.387,5.216-1.686,7.847c0.178,0.275,0.378,0.533,0.6,0.775
		c1.591,1.728,3.029,3.591,4.297,5.568c3.312,5.123,4.352,10.603,3.18,16.752c-0.013,0.074-0.026,0.146-0.036,0.218
		c-0.018,0.073-0.035,0.145-0.05,0.218c-0.592,2.769-1.528,5.451-2.791,7.985c-1.379,2.811-0.216,6.208,2.596,7.585
		c2.807,1.376,6.2,0.219,7.581-2.585c0.11-0.223,0.219-0.45,0.33-0.682l0.001-0.003l0.015-0.03l0.003-0.009l0.008-0.016l0.01-0.023
		l0.007-0.014l0.01-0.023l0.005-0.013l0.012-0.024l0.005-0.013l0.01-0.02l0.006-0.015l0.01-0.023l0.007-0.014l0.01-0.02l0.005-0.013
		l0.011-0.028l0.004-0.005l0.016-0.038l0.015-0.03l0.001-0.005l0.015-0.033l0.002-0.004l0.015-0.033l0.001-0.003
		c1.046-2.263,1.904-4.608,2.569-7.01c0.008-0.03,0.017-0.061,0.024-0.093l0.014-0.045l-0.001-0.002
		c0.008-0.03,0.017-0.061,0.024-0.088l0.002-0.004c0.003-0.013,0.006-0.026,0.01-0.041l0.002-0.008l0.011-0.036l0.002-0.011
		l0.009-0.035l0.003-0.013l0.01-0.034l0.004-0.014l0.008-0.033l0.003-0.013l0.008-0.033l0.005-0.017l0.007-0.027l0.005-0.021
		l0.006-0.022l0.006-0.026l0.006-0.019l0.008-0.03l0.004-0.014l0.008-0.037l0.004-0.012l0.01-0.041l0.003-0.006
		c0.148-0.588,0.285-1.186,0.412-1.796c0.019-0.096,0.037-0.192,0.052-0.288c0.023-0.101,0.046-0.202,0.067-0.304
		c0.945-4.752,0.876-9.651-0.203-14.373l-0.001-0.002c-0.024-0.1-0.048-0.2-0.073-0.302c-0.011-0.049-0.024-0.1-0.038-0.15
		l0.001-0.003l-0.037-0.148l-0.002-0.003c-0.011-0.049-0.026-0.099-0.037-0.148l-0.001-0.002c-0.012-0.051-0.027-0.101-0.04-0.149
		v-0.004l-0.013-0.048c-0.009-0.035-0.019-0.067-0.027-0.101l-0.001-0.002c-0.014-0.05-0.027-0.098-0.04-0.149l-0.003-0.005
		c-0.013-0.048-0.027-0.098-0.041-0.148v-0.004c-0.005-0.015-0.01-0.032-0.013-0.048c-0.011-0.034-0.019-0.065-0.03-0.099v-0.004
		c-0.005-0.017-0.01-0.032-0.013-0.048l-0.001-0.002l-0.013-0.048l-0.001-0.002c-0.005-0.017-0.01-0.032-0.014-0.05l-0.002-0.003
		l-0.013-0.048c-0.011-0.034-0.02-0.066-0.03-0.099l-0.001-0.006l-0.015-0.047l-0.015-0.051c-0.005-0.017-0.01-0.032-0.016-0.049
		v-0.004c-0.003-0.016-0.01-0.032-0.015-0.047v-0.004l-0.015-0.047l-0.001-0.002L327,233.465l-0.001-0.006l-0.015-0.047l0.001-0.003
		l-0.015-0.047l-0.002-0.003l-0.015-0.047l-0.002-0.006c-0.005-0.015-0.01-0.03-0.015-0.047l-0.002-0.003
		c-0.003-0.016-0.009-0.031-0.014-0.046l-0.002-0.003l-0.014-0.046l-0.004-0.009l-0.014-0.046l-0.002-0.003
		c-0.003-0.016-0.009-0.031-0.015-0.047l-0.001-0.002l-0.015-0.047l-0.001-0.006l-0.016-0.049l-0.001-0.002
		c-0.006-0.016-0.011-0.031-0.016-0.049l-0.016-0.049l-0.003-0.005c-0.005-0.017-0.01-0.032-0.016-0.049
		c-0.005-0.017-0.01-0.032-0.016-0.049l-0.002-0.003c-0.003-0.016-0.009-0.031-0.015-0.047l-0.002-0.006
		c-0.006-0.016-0.011-0.031-0.016-0.046v-0.004c-0.006-0.016-0.011-0.031-0.016-0.046l-0.002-0.003
		c-0.005-0.015-0.009-0.031-0.015-0.047l-0.018-0.052l-0.003-0.005l-0.015-0.045l-0.001-0.006l-0.018-0.052
		c-0.006-0.016-0.011-0.031-0.016-0.046l-0.001-0.006c-0.005-0.015-0.01-0.03-0.017-0.044v-0.004l-0.016-0.046l-0.003-0.007
		c-0.005-0.015-0.011-0.031-0.016-0.046l-0.001-0.006c-0.007-0.014-0.011-0.027-0.016-0.042l-0.001-0.006l-0.016-0.046l-0.003-0.007
		c-0.005-0.015-0.013-0.03-0.018-0.045l-0.001-0.006c-0.005-0.015-0.01-0.03-0.015-0.045l-0.002-0.003l-0.016-0.046l-0.004-0.009
		l-0.015-0.045l-0.003-0.005l-0.015-0.045l-0.001-0.006l-0.018-0.045l-0.003-0.007l-0.018-0.045l-0.003-0.007l-0.015-0.04
		l-0.003-0.007c-0.005-0.015-0.01-0.03-0.017-0.044l-0.003-0.012c-0.007-0.014-0.012-0.029-0.017-0.044l-0.003-0.007
		c-0.006-0.012-0.01-0.025-0.015-0.038l-0.003-0.012l-0.016-0.042l-0.005-0.011l-0.017-0.044l-0.003-0.007l-0.016-0.042
		l-0.003-0.005l-0.018-0.045l-0.003-0.012c-0.007-0.014-0.012-0.029-0.017-0.044l-0.003-0.005l-0.016-0.042l-0.004-0.009
		c-0.005-0.015-0.012-0.029-0.017-0.044l-0.021-0.054l-0.003-0.005l-0.016-0.042l-0.004-0.009l-0.017-0.044l-0.021-0.054
		l-0.003-0.005l-0.017-0.044l-0.003-0.007c-0.008-0.015-0.013-0.03-0.018-0.045l-0.004-0.009l-0.019-0.044l-0.002-0.006
		l-0.017-0.041l-0.004-0.009c-0.005-0.015-0.012-0.029-0.017-0.044l-0.005-0.011c-0.005-0.015-0.012-0.029-0.018-0.042l-0.003-0.007
		c-0.005-0.015-0.012-0.029-0.017-0.041l-0.025-0.063c-0.007-0.014-0.013-0.03-0.019-0.044l-0.001-0.006l-0.018-0.042l-0.003-0.007
		l-0.019-0.044l-0.004-0.009c-0.005-0.015-0.013-0.03-0.018-0.045l-0.003-0.005c-0.005-0.015-0.011-0.027-0.017-0.041l-0.005-0.011
		c-0.005-0.015-0.012-0.029-0.018-0.043l-0.005-0.011c-0.006-0.016-0.013-0.03-0.018-0.045l-0.004-0.006
		c-0.005-0.015-0.011-0.027-0.017-0.041l-0.003-0.007c-0.008-0.015-0.013-0.03-0.019-0.044l-0.005-0.011
		c-0.006-0.016-0.013-0.03-0.019-0.044l-0.003-0.007l-0.017-0.041l-0.005-0.008c-0.005-0.015-0.012-0.029-0.018-0.042l-0.005-0.011
		l-0.019-0.044l-0.003-0.007c-0.007-0.014-0.012-0.026-0.019-0.04l-0.004-0.009l-0.019-0.044l-0.005-0.011l-0.019-0.044
		l-0.003-0.007c-0.006-0.012-0.012-0.026-0.018-0.038l-0.005-0.011l-0.019-0.044l-0.004-0.009l-0.02-0.046l-0.003-0.005
		l-0.018-0.043l-0.004-0.006l-0.019-0.044l-0.006-0.012c-0.007-0.014-0.014-0.029-0.021-0.043l-0.001-0.006l-0.02-0.041
		l-0.004-0.009c-0.007-0.014-0.012-0.029-0.019-0.044l-0.006-0.01l-0.019-0.044l-0.003-0.007l-0.019-0.04l-0.006-0.01l-0.019-0.044
		l-0.004-0.009c-0.008-0.015-0.015-0.031-0.022-0.045l-0.003-0.005l-0.018-0.042l-0.006-0.01l-0.019-0.044l-0.004-0.009
		l-0.022-0.045l-0.003-0.005l-0.022-0.045l-0.001-0.006l-0.022-0.045l-0.005-0.011l-0.022-0.045l-0.002-0.003
		c-0.008-0.015-0.013-0.03-0.019-0.044l-0.005-0.008c-0.007-0.014-0.014-0.029-0.021-0.043l-0.006-0.012
		c-0.007-0.014-0.014-0.029-0.021-0.043l-0.002-0.006l-0.023-0.042l-0.004-0.009c-0.007-0.014-0.013-0.028-0.021-0.043l-0.005-0.011
		l-0.024-0.044l-0.001-0.006c-0.007-0.014-0.013-0.028-0.022-0.04l-0.005-0.011c-0.007-0.014-0.014-0.029-0.022-0.045l-0.004-0.009
		c-0.008-0.015-0.015-0.031-0.022-0.045l-0.003-0.005l-0.023-0.042l-0.004-0.009l-0.021-0.043l-0.007-0.011l-0.022-0.045
		l-0.003-0.005c-0.007-0.014-0.014-0.029-0.02-0.041l-0.005-0.011c-0.008-0.013-0.016-0.028-0.023-0.042l-0.006-0.012
		c-0.008-0.013-0.016-0.028-0.024-0.044l-0.001-0.006l-0.022-0.04l-0.004-0.009c-0.009-0.014-0.017-0.03-0.025-0.045l-0.005-0.008
		c-0.008-0.015-0.015-0.031-0.023-0.046l-0.002-0.003c-0.008-0.015-0.014-0.029-0.021-0.043l-0.006-0.01
		c-0.008-0.015-0.014-0.029-0.024-0.044l-0.005-0.011l-0.024-0.044l-0.002-0.003c-0.008-0.015-0.015-0.031-0.022-0.045l-0.005-0.008
		c-0.008-0.015-0.014-0.029-0.024-0.044l-0.006-0.012l-0.024-0.044l-0.003-0.007l-0.021-0.039l-0.006-0.01
		c-0.008-0.015-0.016-0.028-0.024-0.044l-0.005-0.011l-0.025-0.045l-0.003-0.005c-0.007-0.014-0.015-0.027-0.023-0.042l-0.005-0.008
		c-0.008-0.015-0.015-0.031-0.025-0.045l-0.004-0.009l-0.025-0.045l-0.002-0.003c-0.008-0.015-0.017-0.03-0.024-0.044l-0.006-0.01
		c-0.008-0.015-0.014-0.029-0.024-0.044l-0.004-0.009c-0.01-0.016-0.018-0.031-0.027-0.046l0.001-0.003
		c-0.009-0.014-0.017-0.03-0.025-0.045l-0.005-0.008c-0.009-0.014-0.017-0.03-0.025-0.045l-0.005-0.008
		c-0.009-0.017-0.018-0.031-0.026-0.047c-0.009-0.017-0.018-0.031-0.026-0.047l-0.005-0.008l-0.025-0.045l-0.005-0.008l-0.026-0.047
		l-0.001-0.002l-0.026-0.044l-0.004-0.009l-0.026-0.044l-0.006-0.01c-0.008-0.015-0.017-0.03-0.025-0.045l-0.002-0.003
		c-0.008-0.015-0.017-0.03-0.025-0.043l-0.005-0.011c-0.009-0.014-0.017-0.03-0.026-0.044l-0.005-0.008l-0.026-0.047l-0.002-0.003
		c-0.009-0.014-0.016-0.028-0.026-0.044l-0.004-0.009l-0.026-0.044l-0.006-0.01c-0.009-0.014-0.017-0.03-0.026-0.044l-0.002-0.003
		c-0.008-0.015-0.017-0.03-0.025-0.045l-0.006-0.01l-0.025-0.043l-0.006-0.01c-0.009-0.014-0.017-0.03-0.027-0.046l-0.001-0.002
		l-0.026-0.044l-0.005-0.011l-0.026-0.044l-0.006-0.01l-0.026-0.044L323.645,226c-0.008-0.013-0.018-0.027-0.025-0.043l-0.006-0.01
		c-0.009-0.014-0.017-0.03-0.026-0.044l-0.005-0.008c-0.01-0.016-0.018-0.031-0.027-0.046l-0.002-0.003
		c-0.009-0.014-0.019-0.029-0.026-0.044l-0.006-0.01c-0.009-0.014-0.019-0.029-0.025-0.043l-0.035-0.054l-0.001-0.006l-0.027-0.042
		l-0.006-0.012l-0.034-0.053l-0.026-0.044l-0.03-0.046l-0.005-0.011c-0.009-0.014-0.019-0.029-0.028-0.043l-0.006-0.01
		c-0.009-0.017-0.018-0.031-0.028-0.047c-0.01-0.016-0.02-0.03-0.029-0.045l-0.006-0.01c-0.009-0.014-0.019-0.029-0.027-0.046
		l-0.07-0.109c-0.009-0.014-0.02-0.03-0.029-0.045l-0.005-0.011c-0.02-0.03-0.039-0.061-0.06-0.093l-0.005-0.008
		c-0.009-0.014-0.019-0.029-0.029-0.045l-0.2-0.31c-0.01-0.012-0.018-0.025-0.027-0.039l-0.003-0.005
		c-0.006-0.01-0.014-0.022-0.021-0.032l-0.008-0.013c-0.006-0.01-0.012-0.019-0.019-0.029l-0.005-0.008l-0.052-0.077l-0.031-0.048
		c-0.018-0.027-0.034-0.053-0.053-0.079l-0.052-0.08l-0.006-0.005c-0.017-0.026-0.034-0.053-0.051-0.078l-0.004-0.006l-0.025-0.036
		l-0.002-0.003c-0.018-0.027-0.034-0.053-0.052-0.08l-0.002-0.003l-0.026-0.037l-0.002-0.003l-0.054-0.08l-0.027-0.039l-0.001-0.002
		c-0.026-0.04-0.054-0.08-0.082-0.119l-0.028-0.043c-0.027-0.039-0.055-0.078-0.082-0.119l-0.001-0.002
		c-1.404-2.048-2.954-3.991-4.638-5.814c-1.873-2.003-4.911-2.38-7.218-0.896L310.247,216.897z"/>
	<path fill="#CAE4F7" d="M385.365,373.647c-2.63,1.7-6.141,0.946-7.841-1.684c-1.698-2.626-0.948-6.13,1.675-7.833
		c0.28-0.181,27.382-18.125,42.713-53.486c14.875-34.329-1.603-60.493-1.772-60.753c-1.7-2.63-0.948-6.14,1.682-7.84
		s6.141-0.946,7.841,1.684c0.824,1.274,19.914,31.579,2.653,71.419C415.567,353.805,386.592,372.853,385.365,373.647z"/>
	<path fill="#71AADC" d="M325.321,264.007c-5.244,3.427-6.716,10.455-3.291,15.698c3.319,5.078,10.047,6.647,15.267,3.558
		l0.019-0.01c0.014-0.009,0.03-0.02,0.047-0.028l0.01-0.006c0.02-0.011,0.036-0.021,0.056-0.032l0.006-0.004l0.062-0.038
		l0.011-0.005c0.014-0.009,0.029-0.019,0.046-0.027c0.093-0.056,0.189-0.111,0.283-0.165c0.084-0.049,0.166-0.101,0.249-0.152
		c0.093-0.049,0.187-0.1,0.279-0.153c19.212-10.953,39.022-11.255,49.237-10.438c6.245,0.48,11.695-4.19,12.176-10.435
		c0.481-6.233-4.175-11.678-10.406-12.174c-12.721-1.015-37.722-0.629-62.226,13.336c-0.11,0.062-0.216,0.126-0.322,0.19
		c-0.126,0.068-0.252,0.14-0.377,0.212l-0.696,0.409C325.604,263.828,325.462,263.916,325.321,264.007z"/>
	<path fill="#3781C4" d="M448.999,210.981C412.06,153.841,311.247,165,263.63,195.783c-38.092,24.625-40.302,29.649-51.295,40.654
		c-2.945,3.01-5.265,6.575-6.822,10.487c13.023-7.936,81.933-47.66,155.564-46.621c81.766,1.154,131.543,78.153,38.574,164.11
		C437.743,339.786,485.938,268.121,448.999,210.981z"/>
	<path fill="#2C429B" d="M351.386,159.988c-2.632,1.699-3.389,5.21-1.69,7.84c1.06,1.643,2.892,2.623,4.846,2.595
		c8.669-0.18,17.34,0.323,25.929,1.509l0.11,0.015l0.002-0.001c0.033,0.006,0.071,0.011,0.105,0.016h0.007
		c0.035,0.005,0.072,0.01,0.105,0.016l0.003,0.001c0.11,0.015,0.218,0.032,0.327,0.047l0.005,0.001
		c0.035,0.005,0.071,0.011,0.105,0.016h0.007c0.033,0.006,0.065,0.01,0.1,0.015l0.011,0.002c0.035,0.005,0.067,0.009,0.1,0.015
		l0.008,0.002c0.035,0.005,0.07,0.009,0.103,0.015h0.007l0.105,0.016l0.008,0.002c0.033,0.006,0.068,0.01,0.1,0.015l0.011,0.002
		c0.03,0.004,0.07,0.009,0.098,0.014l0.015,0.002c0.033,0.006,0.058,0.01,0.093,0.015l0.017,0.002
		c0.028,0.005,0.064,0.011,0.093,0.015l0.013,0.003c0.03,0.004,0.07,0.009,0.1,0.015l0.008,0.002
		c0.033,0.006,0.068,0.01,0.103,0.015l0.013,0.003c0.035,0.005,0.06,0.009,0.093,0.015l0.02,0.003
		c0.031,0.005,0.058,0.01,0.088,0.013l0.02,0.003c0.031,0.005,0.061,0.01,0.091,0.014l0.017,0.002
		c0.029,0.006,0.061,0.01,0.091,0.014l0.018,0.004c0.028,0.005,0.058,0.01,0.088,0.013l0.026,0.006
		c0.03,0.004,0.06,0.009,0.091,0.014l0.019,0.001l0.089,0.015l0.021,0.005c0.03,0.004,0.057,0.008,0.085,0.013l0.023,0.003
		l0.084,0.014l0.025,0.004l0.086,0.014l0.02,0.003l0.089,0.015l0.025,0.004l0.091,0.014l0.021,0.005
		c0.025,0.004,0.058,0.01,0.084,0.014l0.028,0.005c0.025,0.004,0.056,0.009,0.081,0.013l0.025,0.004l0.081,0.013l0.028,0.005
		c0.025,0.004,0.055,0.008,0.078,0.013l0.031,0.005c0.031,0.005,0.051,0.008,0.08,0.014l0.035,0.005
		c0.028,0.005,0.051,0.008,0.08,0.014l0.03,0.004c0.026,0.006,0.056,0.009,0.081,0.016c0.008-0.001,0.019,0.001,0.027,0.003
		c0.025,0.004,0.057,0.011,0.082,0.015l0.024,0.002c0.026,0.006,0.057,0.011,0.082,0.015l0.026,0.006
		c0.025,0.004,0.056,0.009,0.081,0.013l0.026,0.006c0.03,0.004,0.055,0.008,0.084,0.014l0.032,0.004
		c0.029,0.006,0.052,0.01,0.082,0.015l0.031,0.005c0.025,0.004,0.052,0.01,0.077,0.014l0.031,0.005l0.074,0.013l0.033,0.006
		c0.025,0.004,0.049,0.009,0.074,0.013l0.031,0.005l0.077,0.014c0.013,0.003,0.024,0.005,0.036,0.006l0.074,0.013l0.041,0.007
		c0.02,0.003,0.049,0.009,0.072,0.013l0.036,0.006c0.024,0.005,0.049,0.009,0.073,0.014l0.035,0.005l0.074,0.013l0.031,0.005
		c0.026,0.006,0.047,0.01,0.073,0.014c0.011,0.002,0.025,0.004,0.036,0.006c0.025,0.004,0.046,0.009,0.072,0.013l0.044,0.008
		c0.021,0.005,0.044,0.008,0.065,0.013l0.045,0.007c0.026,0.006,0.047,0.01,0.073,0.014l0.036,0.006
		c0.021,0.005,0.049,0.009,0.07,0.014l0.038,0.007c0.025,0.004,0.044,0.008,0.069,0.012l0.037,0.008l0.069,0.012l0.036,0.006
		c0.026,0.006,0.047,0.01,0.073,0.014l0.044,0.008l0.06,0.011c0.017,0.002,0.036,0.006,0.054,0.01
		c0.023,0.003,0.033,0.006,0.054,0.01c0.017,0.002,0.035,0.005,0.053,0.009c0.021,0.005,0.042,0.009,0.065,0.013
		c0.013,0.003,0.026,0.006,0.039,0.008l0.065,0.013l0.041,0.007l0.062,0.012l0.053,0.009l0.054,0.013
		c0.017,0.002,0.037,0.005,0.056,0.009l0.055,0.012c0.017,0.002,0.036,0.006,0.053,0.009l0.057,0.011l0.05,0.011l0.064,0.011
		l0.105,0.023c0.015,0.002,0.028,0.005,0.041,0.007l0.065,0.013c0.017,0.002,0.037,0.008,0.055,0.012
		c0.017,0.002,0.033,0.006,0.049,0.009l0.056,0.009c0.017,0.005,0.034,0.007,0.051,0.012l0.06,0.011l0.049,0.009
		c0.018,0.004,0.036,0.006,0.054,0.01c0.021,0.005,0.042,0.009,0.063,0.014l0.044,0.008c0.016,0.003,0.042,0.009,0.06,0.011
		l0.045,0.01l0.057,0.011l0.105,0.023l0.069,0.012l0.035,0.009c0.025,0.004,0.049,0.009,0.073,0.014l0.033,0.006l0.071,0.015
		l0.041,0.007l0.063,0.014l0.057,0.011l0.055,0.012c0.017,0.002,0.032,0.007,0.047,0.01c0.023,0.003,0.044,0.008,0.066,0.014
		l0.038,0.007c0.024,0.005,0.047,0.01,0.068,0.015c0.011,0.002,0.024,0.005,0.032,0.007c0.025,0.004,0.049,0.009,0.074,0.016
		l0.034,0.007c0.024,0.005,0.046,0.009,0.07,0.014l0.103,0.022c0.017,0.002,0.037,0.008,0.054,0.01l0.066,0.014
		c0.016,0.003,0.021,0.005,0.039,0.008c0.024,0.005,0.047,0.01,0.071,0.015l0.032,0.007c0.026,0.006,0.05,0.011,0.076,0.016
		l0.024,0.005c0.028,0.005,0.054,0.01,0.081,0.016l0.021,0.005c0.027,0.007,0.054,0.013,0.083,0.019l0.011,0.002
		c0.045,0.01,0.086,0.017,0.129,0.028l0.011,0.002c0.026,0.006,0.053,0.011,0.079,0.017l0.026,0.006
		c0.026,0.006,0.05,0.011,0.076,0.016l0.026,0.006c0.026,0.006,0.05,0.011,0.075,0.017l0.031,0.005
		c0.026,0.006,0.051,0.012,0.076,0.016l0.022,0.006c0.028,0.005,0.053,0.011,0.081,0.016l0.022,0.006
		c0.071,0.015,0.145,0.031,0.217,0.048l0.013,0.003c0.029,0.006,0.058,0.012,0.087,0.019l0.018,0.004
		c0.026,0.006,0.054,0.013,0.08,0.019l0.024,0.005l0.08,0.019l0.121,0.026l0.112,0.025l0.021,0.005
		c0.029,0.006,0.056,0.013,0.083,0.019l0.018,0.004c0.027,0.007,0.054,0.013,0.082,0.018l0.022,0.006
		c0.027,0.007,0.056,0.013,0.083,0.019l0.013,0.003l0.088,0.02l0.013,0.003c0.075,0.017,0.151,0.034,0.224,0.052l0.013,0.003
		c0.03,0.008,0.059,0.014,0.088,0.02l0.013,0.003l0.088,0.02l0.013,0.003l0.085,0.02l0.019,0.006
		c0.027,0.007,0.054,0.013,0.083,0.019l0.017,0.005c0.075,0.017,0.147,0.034,0.222,0.052l0.013,0.003
		c0.025,0.007,0.051,0.012,0.076,0.019l0.029,0.006c0.026,0.006,0.051,0.012,0.078,0.02l0.018,0.004l0.085,0.02l0.013,0.003
		c0.03,0.008,0.059,0.014,0.089,0.022l0.003,0.001c0.145,0.035,0.292,0.07,0.438,0.107l0.003,0.001
		c0.03,0.008,0.063,0.016,0.094,0.023l0.005,0.001c0.114,0.029,0.224,0.055,0.337,0.083l0.003,0.001
		c0.064,0.015,0.127,0.031,0.191,0.047l0.006,0.003l0.094,0.023l0.098,0.025l0.005,0.001c0.355,0.09,0.71,0.18,1.066,0.272
		l0.001,0.002c0.033,0.008,0.063,0.016,0.095,0.025l0.005,0.001c0.112,0.03,0.224,0.059,0.336,0.089
		c0.065,0.017,0.129,0.035,0.194,0.051c0.033,0.008,0.065,0.017,0.096,0.026l0.002-0.001c0.177,0.049,0.352,0.096,0.531,0.144
		l0.003,0.001c0.242,0.066,0.482,0.132,0.723,0.199l0.003,0.001c0.143,0.039,0.283,0.08,0.426,0.119l0.009,0.003l0.091,0.025
		l0.005,0.001c0.031,0.009,0.062,0.019,0.092,0.027l0.003,0.001c0.175,0.05,0.35,0.1,0.526,0.152l0.003,0.001l0.095,0.027
		l0.003,0.001c0.078,0.022,0.157,0.046,0.237,0.069c0.027,0.007,0.053,0.016,0.079,0.024l0.023,0.008
		c0.025,0.007,0.052,0.014,0.078,0.022l0.019,0.006l0.08,0.023l0.018,0.007c0.028,0.009,0.056,0.016,0.084,0.025l0.008,0.002
		c0.106,0.031,0.213,0.064,0.32,0.095l0.012,0.004l0.087,0.026l0.012,0.004l0.083,0.026l0.019,0.006
		c0.026,0.008,0.055,0.015,0.082,0.024l0.011,0.002l0.223,0.069l0.008,0.002c0.028,0.009,0.057,0.018,0.086,0.028l0.011,0.002
		c0.027,0.007,0.056,0.016,0.081,0.024l0.021,0.007c0.027,0.007,0.05,0.015,0.079,0.024l0.019,0.006l0.077,0.025l0.025,0.007
		c0.023,0.008,0.052,0.017,0.076,0.023l0.005,0.001c0.041,0.014,0.083,0.026,0.122,0.039l0.017,0.005l0.077,0.025l0.022,0.006
		c0.026,0.008,0.052,0.017,0.077,0.025l0.019,0.006l0.082,0.024l0.015,0.006c0.028,0.009,0.054,0.017,0.083,0.026l0.012,0.004
		c0.039,0.011,0.077,0.025,0.116,0.036l0.018,0.007c0.027,0.007,0.053,0.016,0.079,0.024l0.018,0.007
		c0.026,0.008,0.053,0.016,0.079,0.024l0.021,0.007c0.026,0.008,0.052,0.017,0.075,0.024l0.026,0.008
		c0.025,0.007,0.048,0.014,0.074,0.023c0.01,0.005,0.015,0.006,0.027,0.01c0.025,0.007,0.048,0.014,0.074,0.023l0.019,0.006
		c0.027,0.01,0.052,0.017,0.078,0.026l0.008,0.002c0.035,0.012,0.072,0.024,0.106,0.034l0.035,0.012l0.066,0.021l0.032,0.011
		c0.025,0.007,0.048,0.014,0.071,0.022l0.027,0.01c0.025,0.007,0.048,0.014,0.072,0.024l0.031,0.009
		c0.022,0.006,0.045,0.014,0.066,0.021l0.046,0.015c0.018,0.007,0.037,0.012,0.055,0.019c0.016,0.003,0.034,0.01,0.049,0.016
		c0.025,0.007,0.049,0.016,0.074,0.023l0.024,0.009c0.025,0.007,0.049,0.016,0.074,0.023l0.026,0.008
		c0.023,0.008,0.045,0.016,0.068,0.024l0.034,0.01c0.023,0.008,0.046,0.015,0.067,0.023l0.029,0.01
		c0.023,0.008,0.045,0.014,0.069,0.023l0.031,0.009c0.023,0.008,0.046,0.015,0.067,0.023c0.017,0.005,0.036,0.011,0.051,0.017
		c0.018,0.007,0.037,0.012,0.055,0.019l0.044,0.015c0.023,0.008,0.046,0.015,0.069,0.023l0.028,0.009
		c0.023,0.008,0.047,0.017,0.07,0.025l0.026,0.008l0.072,0.024c0.012,0.004,0.024,0.009,0.036,0.013l0.06,0.02
		c0.015,0.006,0.032,0.011,0.047,0.017l0.052,0.017c0.015,0.006,0.038,0.014,0.053,0.018c0.021,0.007,0.038,0.014,0.058,0.019
		c0.015,0.006,0.024,0.009,0.041,0.014l0.06,0.02l0.039,0.015l0.06,0.02c0.015,0.006,0.023,0.008,0.037,0.012
		c0.021,0.007,0.042,0.016,0.061,0.021l0.044,0.015l0.055,0.019c0.019,0.008,0.036,0.013,0.054,0.02l0.044,0.015l0.056,0.02
		c0.014,0.004,0.031,0.009,0.044,0.015l0.057,0.018c0.016,0.008,0.033,0.013,0.051,0.019l0.05,0.018
		c0.017,0.005,0.035,0.012,0.053,0.018l0.046,0.015c0.018,0.007,0.037,0.015,0.054,0.02s0.038,0.014,0.053,0.018
		c0.015,0.006,0.032,0.011,0.046,0.015c0.019,0.008,0.039,0.015,0.059,0.021c0.013,0.005,0.027,0.01,0.039,0.015
		c0.019,0.006,0.041,0.014,0.06,0.02l0.036,0.013c0.018,0.007,0.045,0.016,0.064,0.022c0.015,0.006,0.03,0.012,0.045,0.016
		c0.018,0.007,0.036,0.013,0.055,0.019c0.014,0.007,0.03,0.012,0.045,0.016c0.019,0.008,0.037,0.015,0.056,0.02l0.045,0.016
		c0.02,0.007,0.045,0.016,0.064,0.022l0.033,0.013l0.064,0.022l0.037,0.015l0.096,0.033l0.066,0.025l0.041,0.014l0.161,0.059
		c0.014,0.004,0.029,0.01,0.044,0.015c0.018,0.007,0.045,0.016,0.063,0.023c0.012,0.004,0.023,0.008,0.035,0.012
		c0.024,0.009,0.042,0.016,0.065,0.024l0.099,0.038c0.009,0.003,0.021,0.007,0.029,0.01c0.024,0.009,0.044,0.015,0.066,0.025
		c0.016,0.003,0.028,0.009,0.044,0.015c0.018,0.007,0.042,0.016,0.06,0.022l0.038,0.014c0.022,0.009,0.045,0.016,0.068,0.024
		l0.03,0.012c0.023,0.008,0.046,0.018,0.069,0.026l0.032,0.011l0.064,0.025l0.036,0.013l0.065,0.024l0.03,0.012l0.069,0.026
		l0.034,0.014c0.023,0.008,0.045,0.016,0.068,0.024l0.036,0.013c0.022,0.009,0.048,0.019,0.07,0.027l0.029,0.01l0.071,0.026
		l0.024,0.009c0.024,0.009,0.051,0.019,0.075,0.029l0.121,0.047l0.075,0.029l0.107,0.04l0.019,0.008l0.081,0.031l0.018,0.007
		c0.028,0.011,0.055,0.021,0.081,0.031l0.018,0.007c0.027,0.01,0.052,0.021,0.079,0.031l0.022,0.009
		c0.027,0.01,0.052,0.021,0.079,0.031l0.015,0.006c0.03,0.012,0.054,0.02,0.084,0.032l0.015,0.006
		c0.03,0.012,0.056,0.023,0.086,0.035l0.018,0.007c0.027,0.01,0.055,0.021,0.081,0.031l0.022,0.009
		c0.027,0.01,0.051,0.019,0.076,0.03l0.021,0.007c0.023,0.01,0.055,0.021,0.077,0.032l0.021,0.007
		c0.028,0.011,0.053,0.022,0.08,0.032l0.018,0.007c0.025,0.011,0.055,0.021,0.081,0.031l0.016,0.008l0.089,0.036l0.013,0.005
		l0.084,0.032l0.016,0.008c0.027,0.01,0.055,0.021,0.08,0.032l0.018,0.007c0.024,0.009,0.058,0.024,0.08,0.032l0.018,0.007
		l0.082,0.033l0.015,0.006c0.03,0.012,0.056,0.023,0.086,0.035l0.009,0.003c0.03,0.012,0.064,0.025,0.092,0.038l0.009,0.003
		c0.031,0.014,0.059,0.025,0.09,0.037l0.009,0.003c0.027,0.01,0.062,0.026,0.089,0.036l0.012,0.004
		c0.029,0.013,0.056,0.023,0.085,0.036l0.014,0.004l0.086,0.035l0.01,0.005c0.03,0.012,0.058,0.024,0.089,0.036l0.005,0.004
		c0.098,0.039,0.194,0.076,0.293,0.11c0.092,0.045,0.188,0.087,0.284,0.127l0.004,0.002c0.025,0.011,0.05,0.022,0.077,0.032
		l0.004,0.002c0.028,0.011,0.056,0.023,0.081,0.034l0.002-0.001c6.944,2.873,13.507,6.593,19.54,11.072
		c2.511,1.872,6.063,1.353,7.935-1.158c1.868-2.506,1.354-6.05-1.148-7.925c-6.829-5.073-14.263-9.28-22.128-12.523
		c-0.108-0.044-0.214-0.086-0.323-0.124c-0.104-0.048-0.209-0.096-0.317-0.14c-17.192-7.051-37.956-10.563-60.05-10.161
		c-1.056,0.018-2.084,0.332-2.971,0.905L351.386,159.988z"/>
	<path fill="#3781C4" d="M304.513,196.359c3.4,5.259,1.893,12.279-3.368,15.68c-5.259,3.4-12.279,1.893-15.679-3.367
		c-3.4-5.259-1.894-12.28,3.366-15.68C294.093,189.591,301.113,191.1,304.513,196.359z"/>
	<path fill="#3781C4" d="M345.396,196.937c3.4,5.259,1.893,12.279-3.367,15.679s-12.28,1.894-15.68-3.366
		c-3.4-5.259-1.892-12.281,3.367-15.681S341.996,191.678,345.396,196.937z"/>
	<path fill="#29307B" d="M256.896,227.142c3.4,5.259,1.893,12.279-3.367,15.679s-12.28,1.894-15.68-3.366
		c-3.4-5.259-1.892-12.281,3.367-15.681C246.475,220.374,253.496,221.883,256.896,227.142z"/>
	<path fill="#58A0D7" d="M244.295,228.536c1.7,2.63,0.946,6.141-1.684,7.841s-6.139,0.945-7.839-1.685s-0.947-6.138,1.683-7.838
		S242.595,225.907,244.295,228.536z"/>
	<path fill="#71AADC" d="M242.034,277.259c-2.627,1.701-6.134,0.949-7.835-1.678c-0.001-0.002-0.002-0.003-0.003-0.005l-2.526-3.907
		c-1.048-1.642-2.876-2.615-4.824-2.564c-22.636,0.825-29.463-8.698-30.167-9.787c-1.701-2.631-0.944-6.142,1.688-7.841
		c2.553-1.65,5.954-0.993,7.709,1.49c0.32,0.373,4.999,5.366,20.354,4.803c5.938-0.183,11.538,2.754,14.764,7.743l2.526,3.907
		c1.701,2.627,0.95,6.136-1.677,7.836C242.038,277.256,242.037,277.257,242.034,277.259z"/>
	<path fill="#396CB5" d="M243.718,269.42c1.7,2.63,0.945,6.139-1.685,7.839c-2.63,1.7-6.138,0.947-7.838-1.683
		s-0.948-6.14,1.682-7.84S242.018,266.791,243.718,269.42z"/>
	<path fill="#CAE4F7" d="M216.246,269.903c-2.631,1.698-3.387,5.209-1.689,7.839c0.971,1.505,2.596,2.463,4.382,2.582
		c1.596,0.109,3.245,0.164,4.931,0.169l0.801,1.239c4.193,6.478,12.221,9.328,19.559,6.939c0.299-0.098,0.588-0.219,0.866-0.365
		c0.301-0.081,0.598-0.187,0.883-0.317c0.564-0.256,1.116-0.542,1.649-0.86c0.064-0.037,0.128-0.076,0.19-0.116
		c2.628-1.703,3.38-5.213,1.678-7.842c-1.655-2.557-5.034-3.348-7.653-1.796l-0.018,0.011c-0.175,0.102-0.354,0.195-0.539,0.278
		c-0.095,0.043-0.187,0.089-0.277,0.136c-0.101,0.027-0.199,0.056-0.3,0.09c-1.878,0.609-3.937,0.199-5.439-1.083l-0.014-0.011
		c-0.017-0.016-0.033-0.031-0.052-0.046l-0.001-0.002l-0.011-0.011c-0.019-0.015-0.036-0.031-0.052-0.046l-0.001-0.002l-0.011-0.011
		l-0.001-0.002l-0.013-0.01c-0.012-0.012-0.025-0.025-0.039-0.036l-0.025-0.025c-0.017-0.016-0.034-0.032-0.05-0.049l-0.003-0.001
		l-0.009-0.01l-0.003-0.001l-0.012-0.012c-0.008-0.009-0.016-0.017-0.023-0.026l-0.012-0.012l-0.003-0.001l-0.01-0.012l-0.003-0.001
		l-0.047-0.049l-0.002-0.003l-0.009-0.01l-0.004-0.002l-0.009-0.01l-0.002-0.003l-0.022-0.024l-0.003-0.001l-0.01-0.012
		l-0.002-0.003l-0.01-0.009l-0.002-0.003l-0.009-0.01l-0.004-0.002l-0.009-0.01l-0.001-0.002l-0.023-0.026l-0.002-0.003l-0.01-0.009
		l-0.002-0.003l-0.009-0.01l-0.002-0.003l-0.009-0.01l-0.004-0.002l-0.021-0.025l-0.002-0.003l-0.01-0.009l-0.002-0.003l-0.009-0.01
		l-0.002-0.003l-0.009-0.01l-0.002-0.003c-0.008-0.009-0.016-0.017-0.023-0.026l-0.002-0.003l-0.009-0.01l-0.002-0.003l-0.009-0.01
		l-0.002-0.003l-0.009-0.01l-0.002-0.003l-0.009-0.01l-0.002-0.003l-0.011-0.013l-0.003-0.001l-0.007-0.011l-0.005-0.004
		l-0.006-0.01l-0.005-0.004l-0.006-0.01l-0.005-0.004l-0.009-0.014l-0.011-0.013l-0.01-0.012l-0.003-0.005l-0.008-0.009
		l-0.003-0.005l-0.008-0.009l-0.003-0.005l-0.008-0.009l-0.003-0.005l-0.011-0.013l-0.008-0.013l-0.005-0.004l-0.009-0.014
		l-0.008-0.009l-0.01-0.016l-0.004-0.002l-0.02-0.028l-0.003-0.005l-0.008-0.009l-0.012-0.019l-0.008-0.009l-0.012-0.019
		l-0.011-0.013l-0.012-0.019l-0.008-0.009l-0.022-0.034l-0.01-0.012l-0.023-0.035l-0.007-0.007l-2.597-4.017
		c-1.048-1.642-2.879-2.616-4.825-2.565l-0.062,0.002l-0.026,0.001l-0.036,0.001l-0.032,0.003h-0.032l-0.033,0.001l-0.029,0.001
		c-0.011,0-0.024,0.002-0.035,0.002h-0.027c-0.01,0.002-0.024,0.002-0.035,0.002l-0.026,0.001c-0.014,0-0.026,0.001-0.039,0
		l-0.022,0.001c-0.013,0.001-0.028,0.002-0.04,0.001l-0.02,0.001l-0.044,0.001h-0.014l-0.049,0.002l-0.002,0.001
		c-0.076,0.002-0.156,0.004-0.232,0.005h-0.004c-0.018,0-0.036,0.001-0.054,0.001h-0.007l-0.053,0.002l-0.008,0.001h-0.052h-0.007
		c-0.018,0-0.035,0.002-0.053,0.002h-0.007l-0.054,0.001h-0.004c-0.176,0.005-0.351,0.007-0.527,0.009
		c-0.66,0.01-1.308,0.009-1.943,0.003l-0.002,0.001l-0.053-0.002l-0.003-0.001h-0.052h-0.007c-0.016-0.001-0.034,0-0.051-0.001
		l-0.002,0.001c-0.126-0.002-0.252-0.005-0.378-0.007l-0.012-0.001l-0.044-0.001l-0.013,0.001l-0.042-0.002l-0.015,0.001
		l-0.04-0.002h-0.018l-0.04-0.002h-0.018l-0.04-0.002l-0.016-0.001h-0.039l-0.016-0.001l-0.131-0.003h-0.021l-0.03-0.001h-0.027
		l-0.028-0.002l-0.055-0.001l-0.033-0.002l-0.023-0.001l-0.033-0.002h-0.025l-0.033-0.001h-0.025l-0.033-0.001h-0.025l-0.035-0.002
		l-0.019-0.001c-0.016-0.001-0.03-0.001-0.045,0l-0.012-0.001c-0.058-0.001-0.116-0.004-0.174-0.006l-0.003-0.001l-0.056-0.002
		l-0.005-0.001l-0.051-0.001h-0.007c-0.019-0.001-0.035-0.002-0.052-0.003l-0.008,0.001l-0.049-0.002l-0.008-0.002l-0.051-0.001
		h-0.007c-0.522-0.023-1.033-0.051-1.532-0.084C218.484,268.926,217.271,269.241,216.246,269.903z"/>
	<path fill="#71AADC" d="M334.719,284.859c-5.26,3.398-12.279,1.888-15.677-3.372c-2.646-4.096-2.376-9.425,0.669-13.235
		c0.663-0.85,16.962-22.147,3.272-43.324c-9.348-14.46-20.562-17.407-21.034-17.523c-6.019-1.506-9.742-7.535-8.389-13.591
		c1.362-6.014,7.301-9.82,13.335-8.541c2.076,0.437,20.688,4.994,35.135,27.342c22.648,35.034-3.49,68.403-4.616,69.802
		C336.652,283.372,335.742,284.195,334.719,284.859z"/>
	<path fill="#71AADC" d="M334.719,284.859c-5.26,3.398-12.279,1.888-15.677-3.372c-2.646-4.096-2.376-9.425,0.669-13.235
		c0.663-0.85,16.962-22.147,3.272-43.324c-9.348-14.46-20.562-17.407-21.034-17.523c-6.019-1.506-9.742-7.535-8.389-13.591
		c1.362-6.014,7.301-9.82,13.335-8.541c2.076,0.437,20.688,4.994,35.135,27.342c22.648,35.034-3.49,68.403-4.616,69.802
		C336.652,283.372,335.742,284.195,334.719,284.859z"/>
	<path fill="#396CB5" d="M331.65,219.325c-4.597,2.965-10.658,2.223-14.407-1.764c-7.707-8.191-14.983-10.081-15.294-10.156
		c-6.019-1.506-9.742-7.535-8.391-13.59c1.363-6.015,7.303-9.821,13.336-8.542c1.424,0.306,14.276,3.378,26.867,16.757
		c4.29,4.557,4.074,11.725-0.482,16.014c-0.004,0.005-0.007,0.007-0.011,0.011C332.772,218.53,332.229,218.956,331.65,219.325z"/>
	<path fill="#3781C4" d="M401.958,200.88c3.401,5.261,1.894,12.28-3.366,15.68c-5.261,3.401-12.28,1.894-15.681-3.367
		c-3.4-5.259-1.893-12.279,3.368-15.68C391.539,194.114,398.558,195.621,401.958,200.88z"/>
	<path fill="#71AADC" d="M416.485,286.013c3.4,5.259,1.893,12.279-3.368,15.68c-5.259,3.4-12.279,1.893-15.679-3.367
		c-3.401-5.261-1.894-12.28,3.366-15.68C406.065,279.245,413.084,280.753,416.485,286.013z"/>
	<path fill="#CAE4F7" d="M390.415,350.128c1.7,2.63,0.948,6.14-1.682,7.84c-2.63,1.7-6.141,0.946-7.841-1.684
		s-0.946-6.141,1.684-7.841S388.715,347.498,390.415,350.128z"/>
	<path fill="#CAE4F7" d="M397.149,318.768c1.7,2.63,0.948,6.14-1.682,7.84c-2.631,1.701-6.141,0.946-7.841-1.684
		s-0.948-6.14,1.684-7.841C391.939,315.384,395.449,316.138,397.149,318.768z"/>
	<path fill="#E2EAF7" d="M389.068,222.717c3.4,5.259,1.893,12.279-3.367,15.679c-5.259,3.4-12.28,1.894-15.68-3.366
		c-3.4-5.259-1.892-12.281,3.367-15.681C378.648,215.949,385.668,217.458,389.068,222.717z"/>
	<path fill="#71AADC" d="M281.812,244.794c1.7,2.63,0.945,6.139-1.685,7.839s-6.14,0.948-7.84-1.682s-0.946-6.141,1.684-7.841
		S280.112,242.164,281.812,244.794z"/>
	<path fill="#396CB5" d="M448.709,231.423c1.7,2.63,0.946,6.141-1.684,7.841s-6.139,0.945-7.839-1.685s-0.948-6.14,1.682-7.84
		S447.009,228.793,448.709,231.423z"/>
	<path fill="#396CB5" d="M454.289,281.829c1.7,2.63,0.948,6.14-1.684,7.841c-2.63,1.7-6.139,0.945-7.839-1.685
		s-0.948-6.14,1.682-7.84C449.079,278.444,452.589,279.199,454.289,281.829z"/>
	<path fill="#396CB5" d="M461.022,250.469c1.7,2.63,0.946,6.141-1.684,7.841s-6.139,0.945-7.839-1.685s-0.948-6.14,1.682-7.84
		S459.322,247.84,461.022,250.469z"/>
	<path fill="#71AADC" d="M431.875,309.821c1.7,2.63,0.946,6.141-1.684,7.841s-6.141,0.946-7.841-1.684s-0.945-6.139,1.685-7.839
		S430.175,307.191,431.875,309.821z"/>
	<path fill="#71AADC" d="M352.322,374.754c1.7,2.63,0.948,6.14-1.682,7.84s-6.141,0.946-7.841-1.684s-0.946-6.141,1.684-7.841
		C347.112,371.369,350.622,372.124,352.322,374.754z"/>
	<path fill="#396CB5" d="M398.881,196.12c1.7,2.63,0.947,6.138-1.685,7.839c-2.63,1.7-6.138,0.947-7.838-1.683
		s-0.948-6.14,1.682-7.84C393.671,192.735,397.181,193.49,398.881,196.12z"/>
	<path fill="#3781C4" d="M333.587,366.66c-7.748-11.986-29.023-18.922-42.091-20.74c-7.878-1.068-15.626,2.703-19.643,9.564
		c-4.211,7.262-3.447,16.379,1.911,22.843c14.547,17.829,37.41,16.324,37.41,16.324c-1.94,9.033-5.013,31.644-0.165,41.307
		c5.06,9.861,17.157,13.753,27.018,8.692c5.42-2.783,9.283-7.876,10.502-13.845c4.145-20.063-2.629-45.099-2.629-45.099
		c-9.523,6.156-15.68-3.368-15.68-3.368S324.065,372.816,333.587,366.66z"/>
	<path fill="#58A0D7" d="M278.184,348.883l-0.042,0.027l-0.02,0.015l-0.134,0.087c-0.108,0.072-0.216,0.146-0.323,0.22l-0.002,0.001
		c-0.069,0.047-0.138,0.096-0.206,0.144c-2.439,1.785-3.007,5.19-1.278,7.669c1.775,2.549,5.248,3.237,7.863,1.56
		c0.026-0.017,0.05-0.035,0.076-0.051l0.222-0.148c1.653-1.075,3.639-1.52,5.594-1.252c8.317,1.155,20.264,4.727,28.209,10.103
		c2.594,1.755,6.118,1.074,7.873-1.52c1.75-2.587,1.08-6.102-1.501-7.862c-1.124-0.76-2.298-1.486-3.514-2.178L321,355.696
		c-0.085-0.047-0.17-0.094-0.256-0.143l-0.005-0.004c-0.042-0.023-0.082-0.047-0.124-0.069l-0.004-0.002
		c-0.042-0.023-0.082-0.047-0.123-0.068l-0.008-0.006l-0.038-0.021l-0.008-0.006l-0.073-0.039l-0.011-0.007l-0.035-0.018
		l-0.018-0.011l-0.064-0.036l-0.011-0.006l-0.086-0.046l-0.004-0.002l-0.071-0.04l-0.023-0.01l-0.032-0.018l-0.021-0.011
		c-0.017-0.009-0.035-0.018-0.052-0.028l-0.022-0.013c-0.013-0.005-0.021-0.011-0.032-0.018l-0.025-0.014
		c-0.016-0.008-0.031-0.016-0.047-0.024l-0.057-0.031c-0.01-0.005-0.017-0.009-0.025-0.014c-0.014-0.007-0.028-0.016-0.044-0.022
		l-0.032-0.018l-0.057-0.031l-0.026-0.013c-0.017-0.009-0.032-0.018-0.048-0.025l-0.025-0.014l-0.031-0.016l-0.025-0.014
		c-0.014-0.007-0.026-0.015-0.038-0.021l-0.035-0.018l-0.031-0.016c-0.01-0.005-0.017-0.009-0.026-0.013l-0.039-0.022l-0.021-0.011
		c-0.016-0.008-0.03-0.015-0.045-0.023l-0.024-0.012l-0.035-0.018l-0.021-0.011c-0.017-0.009-0.036-0.017-0.053-0.027l-0.018-0.011
		c-0.014-0.007-0.027-0.014-0.04-0.02l-0.017-0.009l-0.056-0.03l-0.013-0.005c-0.015-0.009-0.031-0.016-0.046-0.025l-0.016-0.008
		c-0.018-0.011-0.036-0.02-0.055-0.028l-0.013-0.005l-0.046-0.025l-0.017-0.009c-0.017-0.009-0.034-0.017-0.05-0.024l-0.012-0.008
		l-0.05-0.024l-0.018-0.011c-0.016-0.008-0.034-0.017-0.05-0.024l-0.006-0.003c-0.018-0.011-0.038-0.021-0.058-0.03l-0.014-0.007
		c-0.016-0.008-0.034-0.017-0.05-0.024l-0.008-0.006c-0.02-0.01-0.04-0.02-0.06-0.029l-0.01-0.005
		c-0.017-0.009-0.035-0.018-0.052-0.028l-0.009-0.003l-0.122-0.062l-0.009-0.003c-0.041-0.021-0.082-0.042-0.122-0.062l-0.006-0.003
		c-0.044-0.022-0.084-0.043-0.127-0.063l-0.001-0.002c-0.066-0.032-0.13-0.064-0.196-0.096c-0.042-0.02-0.086-0.042-0.128-0.065
		l-0.003-0.001c-8.042-3.85-16.603-6.5-25.411-7.868l-0.001-0.002c-0.037-0.005-0.075-0.011-0.111-0.017L292.045,346
		c-0.036-0.004-0.072-0.01-0.107-0.015l-0.009-0.001l-0.048-0.008l-0.003-0.001c-0.017-0.002-0.035-0.005-0.052-0.007l-0.009-0.001
		l-0.046-0.009l-0.005-0.001l-0.051-0.005l-0.011-0.002l-0.042-0.005l-0.011-0.002c-0.017-0.002-0.032-0.004-0.05-0.007
		l-0.011-0.002l-0.04-0.006l-0.015-0.002c-0.015-0.002-0.032-0.004-0.048-0.008C286.846,345.278,282.123,346.33,278.184,348.883z"/>
	<path fill="#396CB5" d="M373.966,178.467c3.4,5.259,1.891,12.28-3.368,15.68c-5.259,3.4-12.279,1.893-15.679-3.367
		c-3.4-5.259-1.894-12.28,3.366-15.68C363.545,171.7,370.567,173.208,373.966,178.467z"/>
	<path fill="#E2EAF7" d="M298.597,281.204c-0.855,0.553-21.218,13.544-38.994,9.727c-3.061-0.657-5.01-3.672-4.353-6.733
		s3.672-5.01,6.733-4.353c13.152,2.824,30.289-8.057,30.466-8.172c2.634-1.694,6.141-0.931,7.835,1.703
		C301.977,276.005,301.221,279.505,298.597,281.204z"/>
	<path fill="#375AA9" d="M325.55,384.259c-2.632,1.704-3.384,5.218-1.681,7.848c0.274,0.424,0.602,0.808,0.977,1.143
		c3.38,3.11,7.64,5.097,12.195,5.691c1.187,7.379,2.194,17.601,0.867,26.789c-0.013,0.085-0.023,0.171-0.031,0.254
		c-0.016,0.083-0.032,0.168-0.044,0.251c-0.119,0.766-0.254,1.524-0.41,2.276c-0.59,2.884-2.585,5.279-5.311,6.384
		c-2.903,1.172-4.307,4.477-3.132,7.381c1.168,2.894,4.458,4.298,7.358,3.142c0.288-0.116,0.573-0.239,0.856-0.37l0.003,0.001
		l0.028-0.013l0.005-0.003l0.03-0.013c0.023-0.01,0.043-0.021,0.064-0.03l0.005-0.003l0.024-0.011l0.032-0.014l0.008-0.005
		l0.024-0.011l0.007-0.003l0.031-0.015l0.003-0.002l0.024-0.011l0.014-0.007l0.016-0.006l0.031-0.015l0.014-0.007l0.031-0.015
		l0.045-0.022l0.011-0.005l0.017-0.009l0.012-0.006l0.019-0.01l0.009-0.004l0.02-0.011l0.005-0.003
		c0.024-0.011,0.05-0.024,0.074-0.036l0.003-0.002l0.023-0.01l0.006-0.004l0.021-0.009l0.006-0.004l0.022-0.012l0.003,0.001
		c0.025-0.014,0.051-0.026,0.076-0.04l0.002-0.001l0.024-0.011l0.005-0.003l0.022-0.012h0.004c0.034-0.017,0.068-0.035,0.101-0.054
		h0.004l0.022-0.012l0.005-0.003l0.023-0.013h0.004c0.033-0.019,0.067-0.037,0.101-0.054l0.002-0.001l0.023-0.013l0.005-0.003
		l0.022-0.012l0.003-0.002c0.034-0.017,0.068-0.035,0.101-0.054l0.003-0.002l0.022-0.012l0.007-0.003l0.021-0.013h0.004
		c0.033-0.019,0.064-0.037,0.098-0.055l0.005-0.003l0.02-0.011l0.008-0.005l0.02-0.011l0.005-0.003
		c0.023-0.013,0.047-0.026,0.07-0.039l0.026-0.017l0.007-0.003l0.027-0.018l0.019-0.01l0.008-0.005
		c0.023-0.013,0.045-0.025,0.066-0.038l0.006-0.004l0.019-0.01l0.01-0.006l0.017-0.009l0.013-0.008l0.015-0.008l0.011-0.007
		c0.02-0.011,0.039-0.023,0.059-0.036l0.012-0.006l0.027-0.018l0.017-0.009l0.027-0.018l0.015-0.008l0.038-0.025l0.015-0.008
		l0.042-0.027l0.014-0.007l0.043-0.028l0.014-0.007l0.053-0.034l0.014-0.007l0.056-0.036l0.022-0.012l0.072-0.046l0.019-0.01
		l0.121-0.079l0.012-0.006l0.083-0.054c4.535-2.932,7.703-7.561,8.793-12.849l0.022-0.103l0.003-0.02l0.006-0.022v-0.007
		c0.006-0.029,0.01-0.054,0.016-0.083l0.001-0.005c0.042-0.204,0.081-0.408,0.121-0.613l0.001-0.005
		c0.003-0.016,0.006-0.036,0.01-0.052l0.006-0.026l0.004-0.023l0.003-0.016c0.001-0.012,0.003-0.023,0.006-0.033l0.003-0.016
		l0.004-0.025l0.003-0.013l0.006-0.036l0.01-0.047l-0.001-0.002c0.104-0.561,0.2-1.124,0.286-1.692
		c0.017-0.104,0.03-0.205,0.04-0.309c0.02-0.102,0.038-0.204,0.053-0.307c0.736-5.53,0.932-11.117,0.584-16.684
		c-0.008-0.128-0.015-0.255-0.021-0.383l-0.003-0.046l-0.002-0.017l-0.001-0.015l-0.001-0.008v-0.018l-0.001-0.008l-0.002-0.049
		l-0.001-0.006c-0.002-0.053-0.006-0.105-0.009-0.157v-0.004l-0.002-0.049l-0.003-0.007l-0.001-0.047l-0.002-0.01l-0.001-0.02
		l0.001-0.003l-0.001-0.033l-0.003-0.019l0.001-0.005l-0.002-0.021l0.001-0.009c-0.005-0.078-0.01-0.156-0.016-0.235v-0.004
		l-0.002-0.031v-0.018l-0.002-0.01l-0.001-0.033v-0.007l-0.005-0.053v-0.004l-0.003-0.054l0.001-0.003
		c-0.004-0.048-0.007-0.098-0.01-0.145l-0.001-0.02l-0.002-0.021l0.001-0.009l-0.003-0.019l0.001-0.009l-0.002-0.014l-0.001-0.02
		v-0.007l-0.001-0.02l-0.001-0.008v-0.025l-0.002-0.003c-0.001-0.029-0.003-0.057-0.005-0.085l-0.001-0.002l-0.001-0.029
		l-0.001-0.002c-0.002-0.028-0.004-0.056-0.007-0.084l0.001-0.003l-0.001-0.026l-0.001-0.002c-0.001-0.008,0-0.018-0.001-0.026
		v-0.007l-0.005-0.047l0.001-0.012c-0.006-0.073-0.012-0.149-0.017-0.223l-0.001-0.013l-0.001-0.02l-0.002-0.028
		c-0.003-0.039-0.006-0.076-0.008-0.115l0.001-0.003l-0.002-0.021v-0.011l-0.001-0.013l-0.001-0.015
		c-0.005-0.064-0.01-0.132-0.016-0.196l0.001-0.003l-0.002-0.024l-0.001-0.013l-0.001-0.015l-0.003-0.03v-0.007l-0.004-0.052
		l0.001-0.003c-0.003-0.018-0.004-0.034-0.006-0.051l-0.001-0.008l-0.002-0.042l-0.002-0.028c-0.005-0.071-0.011-0.14-0.018-0.21
		v-0.007c-0.602-7.347-1.806-14.631-3.6-21.781l-0.037,0.024c-5.957,3.828-10.593,1.524-13.222-0.727l-0.001-0.002l-0.015-0.013
		l-0.031-0.027l-0.003-0.001l-0.012-0.012l-0.004-0.002l-0.013-0.012l-0.002,0.001l-0.014-0.014l-0.004-0.002l-0.011-0.011
		l-0.019-0.015l-0.013-0.012l-0.005-0.004l-0.01-0.009l-0.006-0.005l-0.008-0.006l-0.006-0.005l-0.007-0.007l-0.015-0.013
		l-0.005-0.004l-0.008-0.009l-0.019-0.015l-0.006-0.005C330.504,383.096,327.698,382.875,325.55,384.259z"/>
	<path fill="#58A0D7" d="M313.123,366.336l9.523-6.156c2.63-1.7,6.141-0.946,7.841,1.684s0.946,6.141-1.684,7.841l-9.523,6.156
		c-2.63,1.7-6.141,0.946-7.841-1.684C309.739,371.547,310.493,368.036,313.123,366.336z"/>
	<path fill="#375AA9" d="M315.912,391.539l9.524-6.157c2.63-1.7,6.141-0.946,7.841,1.684s0.945,6.139-1.685,7.839l-9.524,6.157
		c-2.63,1.7-6.138,0.947-7.838-1.683S313.282,393.239,315.912,391.539z"/>
	<path fill="#375AA9" d="M318.702,416.742l19.047-12.313c2.63-1.7,6.139-0.945,7.839,1.685s0.947,6.138-1.683,7.838l-19.047,12.313
		c-2.63,1.7-6.14,0.948-7.84-1.682S316.073,418.442,318.702,416.742z"/>
	<path fill="#58A0D7" d="M272.239,365.759l19.047-12.313c2.63-1.7,6.141-0.946,7.841,1.684s0.946,6.141-1.684,7.841l-19.047,12.313
		c-2.63,1.7-6.139,0.945-7.839-1.685S269.609,367.459,272.239,365.759z"/>
	<path fill="#58A0D7" d="M295.76,370.808c1.701,2.631,0.946,6.141-1.684,7.841s-6.14,0.948-7.841-1.684
		c-1.7-2.63-0.945-6.139,1.685-7.839S294.06,368.178,295.76,370.808z"/>
	<path fill="#375AA9" d="M320.386,408.901c1.7,2.63,0.946,6.141-1.684,7.841s-6.141,0.946-7.841-1.684s-0.945-6.139,1.685-7.839
		C315.176,405.52,318.686,406.272,320.386,408.901z"/>
</g>
</svg>
