<?xml version="1.0" encoding="utf-8"?>
<!-- Generator: Adobe Illustrator 17.0.0, SVG Export Plug-In . SVG Version: 6.00 Build 0)  -->
<!DOCTYPE svg PUBLIC "-//W3C//DTD SVG 1.1//EN" "http://www.w3.org/Graphics/SVG/1.1/DTD/svg11.dtd">
<svg version="1.1" id="_x33_2" xmlns="http://www.w3.org/2000/svg" xmlns:xlink="http://www.w3.org/1999/xlink" x="0px" y="0px"
	 width="507.051px" height="369.037px" viewBox="0 0 507.051 369.037" enable-background="new 0 0 507.051 369.037"
	 xml:space="preserve">
<rect x="-132.691" y="-156.692" display="none" fill-rule="evenodd" clip-rule="evenodd" fill="#FEFEFE" width="799.804" height="799.801"/>
<g>
	<g>
		
			<radialGradient id="SVGID_1_" cx="1345.5557" cy="3642.7529" r="230.9374" gradientTransform="matrix(0 -1 1 0 -3239.7979 1464.0105)" gradientUnits="userSpaceOnUse">
			<stop  offset="0" style="stop-color:#CEFF00"/>
			<stop  offset="1" style="stop-color:#006500"/>
		</radialGradient>
		<path fill-rule="evenodd" clip-rule="evenodd" fill="url(#SVGID_1_)" d="M488.443,121.809
			c-3.518,66.787-56.48,121.858-124.9,126.308c-62.556,3.98-117.865-36.098-135.671-93.264
			c-2.343-14.288,6.555-17.343,20.149-14.768c52.723,10.316,95.369,75.003,172.228,33.516c-4.921,8.902-10.772,16.4-16.635,21.786
			C429.152,194.218,477.192,176.875,488.443,121.809L488.443,121.809z"/>
		
			<radialGradient id="SVGID_2_" cx="1297.12" cy="3564.5605" r="70.2852" gradientTransform="matrix(0 -1 1 0 -3239.7979 1464.0105)" gradientUnits="userSpaceOnUse">
			<stop  offset="0" style="stop-color:#0CA500"/>
			<stop  offset="0.43" style="stop-color:#1A5B00"/>
			<stop  offset="1" style="stop-color:#001B00"/>
		</radialGradient>
		<path fill-rule="evenodd" clip-rule="evenodd" fill="url(#SVGID_2_)" d="M229.277,143.611c3.042-4.46,10.069-5.166,18.744-3.525
			c52.723,10.316,95.369,75.003,172.228,33.516c-23.198,18.976-48.981,23.435-74.049,19.682
			C307.778,187.654,247.319,126.504,229.277,143.611L229.277,143.611z"/>
		
			<radialGradient id="SVGID_3_" cx="1305.412" cy="3685.8264" r="39.7017" gradientTransform="matrix(0 -1 1 0 -3239.7979 1464.0105)" gradientUnits="userSpaceOnUse">
			<stop  offset="0" style="stop-color:#0CA500"/>
			<stop  offset="0.43" style="stop-color:#1A5B00"/>
			<stop  offset="1" style="stop-color:#001B00"/>
		</radialGradient>
		<path fill-rule="evenodd" clip-rule="evenodd" fill="url(#SVGID_3_)" d="M488.443,121.809
			c-8.911,37.958-52.735,66.787-79.452,67.957c-1.633,2.112-3.501,3.98-5.377,5.622
			C429.152,194.218,477.192,176.875,488.443,121.809L488.443,121.809z"/>
	</g>
	<g>
		
			<radialGradient id="SVGID_4_" cx="-2768.3362" cy="142.9714" r="326.6502" gradientTransform="matrix(0 1 -1 0 288.8327 2965.6011)" gradientUnits="userSpaceOnUse">
			<stop  offset="0" style="stop-color:#00C4FF"/>
			<stop  offset="1" style="stop-color:#0014A7"/>
		</radialGradient>
		<path fill-rule="evenodd" clip-rule="evenodd" fill="url(#SVGID_4_)" d="M24.943,192.52
			C29.914,98.049,104.817,20.158,201.61,13.854c88.492-5.629,166.718,51.061,191.898,131.926
			c3.314,20.218-9.275,24.532-28.495,20.892c-74.578-14.597-134.895-106.078-243.614-47.405
			c6.958-12.599,15.239-23.208,23.529-30.818C108.793,90.105,40.86,114.628,24.943,192.52L24.943,192.52z"/>
		
			<radialGradient id="SVGID_5_" cx="-2836.8469" cy="32.3702" r="99.4174" gradientTransform="matrix(0 1 -1 0 288.8327 2965.6011)" gradientUnits="userSpaceOnUse">
			<stop  offset="0" style="stop-color:#006EE0"/>
			<stop  offset="0.415" style="stop-color:#0037CC"/>
			<stop  offset="1" style="stop-color:#00121D"/>
		</radialGradient>
		<path fill-rule="evenodd" clip-rule="evenodd" fill="url(#SVGID_5_)" d="M391.526,161.685c-4.305,6.303-14.247,7.303-26.513,4.987
			c-74.578-14.597-134.895-106.078-243.614-47.405c32.813-26.855,69.274-33.15,104.743-27.846
			C280.501,99.374,366.004,185.883,391.526,161.685L391.526,161.685z"/>
	</g>
</g>
<text transform="matrix(1 0 0 1 152.0161 345.0343)"><tspan x="0" y="0" fill="#29ABE2" font-family="'MyriadPro-Bold'" font-size="72">my</tspan><tspan x="99.575" y="0" fill="#00FF00" font-family="'MyriadPro-Bold'" font-size="72">AP</tspan></text>
<circle opacity="0.6" fill="#FF0013" stroke="#231F20" stroke-width="2" stroke-miterlimit="10" cx="355.526" cy="129.205" r="11"/>
<circle opacity="0.6" fill="#FF0013" stroke="#231F20" stroke-width="2" stroke-miterlimit="10" cx="264.526" cy="178.205" r="11"/>
<circle fill="#FF0013" stroke="#231F20" stroke-width="2" stroke-miterlimit="10" cx="355.585" cy="129.813" r="3.059"/>
<circle fill="#FF0013" stroke="#231F20" stroke-width="2" stroke-miterlimit="10" cx="264.585" cy="178.813" r="3.059"/>
</svg>
