<?xml version="1.0" encoding="utf-8"?>
<!-- Generator: Adobe Illustrator 17.0.0, SVG Export Plug-In . SVG Version: 6.00 Build 0)  -->
<!DOCTYPE svg PUBLIC "-//W3C//DTD SVG 1.1//EN" "http://www.w3.org/Graphics/SVG/1.1/DTD/svg11.dtd">
<svg version="1.1" id="Layer_1" xmlns="http://www.w3.org/2000/svg" xmlns:xlink="http://www.w3.org/1999/xlink" x="0px" y="0px"
	 width="107px" height="107px" viewBox="0 0 107 107" enable-background="new 0 0 107 107" xml:space="preserve">
<g id="Layer_1_1_">
	<circle fill="#35499C" stroke="#010101" stroke-width="2" stroke-miterlimit="10" cx="54.267" cy="53.866" r="50.233"/>
	<circle fill="none" cx="54.262" cy="55.489" r="44.048"/>
	<circle fill="#0AA8E0" cx="54.15" cy="53.787" r="36.989"/>
	<circle fill="none" cx="54.594" cy="56.813" r="42.867"/>
	<text transform="matrix(0.158 -0.9874 0.9874 0.158 12.1274 50.8589)"><tspan x="0" y="0" fill="#FFFFFF" font-family="'TimesNewRomanPSMT'" font-size="7.0709"> </tspan><tspan x="1.708" y="-0.002" fill="#FFFFFF" font-family="'TimesNewRomanPSMT'" font-size="7.0709" rotate="2.293"> </tspan><tspan x="3.439" y="0.067" fill="#FFFFFF" font-family="'TimesNewRomanPSMT'" font-size="7.0709" rotate="4.621"> </tspan><tspan x="5.111" y="0.133" fill="#FFFFFF" font-family="'TimesNewRomanPSMT'" font-size="7.0709" rotate="9.116">D</tspan><tspan x="10.023" y="0.936" fill="#FFFFFF" font-family="'TimesNewRomanPSMT'" font-size="7.0709" rotate="15.28">E</tspan><tspan x="14.093" y="2.052" fill="#FFFFFF" font-family="'TimesNewRomanPSMT'" font-size="7.0709" rotate="20.677">P</tspan><tspan x="17.67" y="3.363" fill="#FFFFFF" font-family="'TimesNewRomanPSMT'" font-size="7.0709" rotate="26.54">A</tspan><tspan x="22.137" y="5.599" fill="#FFFFFF" font-family="'TimesNewRomanPSMT'" font-size="7.0709" rotate="32.919">R</tspan><tspan x="25.975" y="8.087" fill="#FFFFFF" font-family="'TimesNewRomanPSMT'" font-size="7.0709" rotate="38.726">T</tspan><tspan x="29.298" y="10.668" fill="#FFFFFF" font-family="'TimesNewRomanPSMT'" font-size="7.0709" rotate="45.62">M</tspan><tspan x="33.546" y="15.079" fill="#FFFFFF" font-family="'TimesNewRomanPSMT'" font-size="7.0709" rotate="52.483">E</tspan><tspan x="36.126" y="18.392" fill="#FFFFFF" font-family="'TimesNewRomanPSMT'" font-size="7.0709" rotate="58.641">N</tspan><tspan x="38.712" y="22.664" fill="#FFFFFF" font-family="'TimesNewRomanPSMT'" font-size="7.0709" rotate="64.829">T</tspan><tspan x="40.473" y="26.509" fill="#FFFFFF" font-family="'TimesNewRomanPSMT'" font-size="7.0709" rotate="68.804"> </tspan><tspan x="41.102" y="28.131" fill="#FFFFFF" font-family="'TimesNewRomanPSMT'" font-size="7.0709" rotate="71.139"> </tspan><tspan x="41.658" y="29.754" fill="#FFFFFF" font-family="'TimesNewRomanPSMT'" font-size="7.0709" rotate="73.438"> </tspan><tspan x="42.141" y="31.378" fill="#FFFFFF" font-family="'TimesNewRomanPSMT'" font-size="7.0709" rotate="75.697"> </tspan><tspan x="42.573" y="33.066" fill="#FFFFFF" font-family="'TimesNewRomanPSMT'" font-size="7.0709" rotate="78.006"> </tspan><tspan x="42.927" y="34.751" fill="#FFFFFF" font-family="'TimesNewRomanPSMT'" font-size="7.0709" rotate="79.979"> </tspan><tspan x="43.282" y="36.392" fill="#FFFFFF" font-family="'TimesNewRomanPSMT'" font-size="7.0709" rotate="84.67">O</tspan><tspan x="43.722" y="41.364" fill="#FFFFFF" font-family="'TimesNewRomanPSMT'" font-size="7.0709" rotate="90.541">F</tspan><tspan x="43.653" y="45.217" fill="#FFFFFF" font-family="'TimesNewRomanPSMT'" font-size="7.0709" rotate="94.265"> </tspan><tspan x="43.527" y="46.92" fill="#FFFFFF" font-family="'TimesNewRomanPSMT'" font-size="7.0709" rotate="96.562"> </tspan><tspan x="43.33" y="48.639" fill="#FFFFFF" font-family="'TimesNewRomanPSMT'" font-size="7.0709" rotate="98.896"> </tspan><tspan x="43.067" y="50.326" fill="#FFFFFF" font-family="'TimesNewRomanPSMT'" font-size="7.0709" rotate="101.195"> </tspan><tspan x="42.731" y="52.027" fill="#FFFFFF" font-family="'TimesNewRomanPSMT'" font-size="7.0709" rotate="103.528"> </tspan><tspan x="42.336" y="53.675" fill="#FFFFFF" font-family="'TimesNewRomanPSMT'" font-size="7.0709" rotate="105.806"> </tspan><tspan x="41.868" y="55.332" fill="#FFFFFF" font-family="'TimesNewRomanPSMT'" font-size="7.0709" rotate="108.117"> </tspan><tspan x="41.373" y="56.964" fill="#FFFFFF" font-family="'TimesNewRomanPSMT'" font-size="7.0709" rotate="111.846">F</tspan><tspan x="39.915" y="60.534" fill="#FFFFFF" font-family="'TimesNewRomanPSMT'" font-size="7.0709" rotate="115.94">I</tspan><tspan x="38.949" y="62.591" fill="#FFFFFF" font-family="'TimesNewRomanPSMT'" font-size="7.0709" rotate="120.013">S</tspan><tspan x="37.084" y="65.892" fill="#FFFFFF" font-family="'TimesNewRomanPSMT'" font-size="7.0709" rotate="125.825">H</tspan><tspan x="34.17" y="69.942" fill="#FFFFFF" font-family="'TimesNewRomanPSMT'" font-size="7.0709" rotate="132.448">A</tspan><tspan x="30.813" y="73.608" fill="#FFFFFF" font-family="'TimesNewRomanPSMT'" font-size="7.0709" rotate="138.803">R</tspan><tspan x="27.315" y="76.612" fill="#FFFFFF" font-family="'TimesNewRomanPSMT'" font-size="7.0709" rotate="143.396">I</tspan><tspan x="25.514" y="78" fill="#FFFFFF" font-family="'TimesNewRomanPSMT'" font-size="7.0709" rotate="147.761">E</tspan><tspan x="21.937" y="80.25" fill="#FFFFFF" font-family="'TimesNewRomanPSMT'" font-size="7.0709" rotate="153.185">S</tspan></text>
</g>
<g id="Layer_3">
	<g>
		<path fill="none" d="M18,52.157c2.904,0.303,3.993,3.642,6.897,4.855c5.082,2.428,11.978,0.91,14.882-3.338
			c1.452-1.821,5.082-2.124,6.171,0c1.089,1.517,2.178,2.428,3.993,3.338c5.082,2.428,11.978,0.91,14.882-3.338
			c1.452-2.124,5.445-2.124,6.897,0c1.089,1.517,2.178,2.428,3.993,3.338c5.082,2.428,11.978,0.91,14.882-3.338
			c0.189-0.316,0.412-0.567,0.661-0.768c-0.509-19.992-16.875-36.042-36.99-36.042c-19.845,0-36.04,15.623-36.96,35.241
			C17.54,52.112,17.771,52.129,18,52.157z M85.152,49.122c0,1.676-1.625,3.035-3.63,3.035c-2.005,0-3.63-1.359-3.63-3.035
			s1.625-3.035,3.63-3.035S85.152,47.446,85.152,49.122z M77.892,33.949c2.005,0,3.63,1.359,3.63,3.035
			c0,1.676-1.625,3.035-3.63,3.035s-3.63-1.359-3.63-3.035S75.888,33.949,77.892,33.949z M56.113,40.018
			c2.005,0,3.63,1.359,3.63,3.035s-1.625,3.035-3.63,3.035s-3.63-1.359-3.63-3.035C52.484,41.377,54.109,40.018,56.113,40.018z"/>
		<path fill="#CEECF8" d="M90.596,53.674c-2.904,4.248-9.8,5.766-14.882,3.338c-1.815-0.91-2.904-1.821-3.993-3.338
			c-1.452-2.124-5.445-2.124-6.897,0c-2.904,4.249-9.8,5.766-14.882,3.338c-1.815-0.91-2.904-1.821-3.993-3.338
			c-1.089-2.124-4.719-1.821-6.171,0c-2.904,4.249-9.8,5.766-14.882,3.338c-2.904-1.214-3.993-4.552-6.897-4.855
			c-0.229-0.027-0.461-0.044-0.693-0.052c-0.027,0.584-0.043,1.171-0.043,1.762c0,9.73,3.757,18.581,9.898,25.186
			c4.7,1.14,10.127-0.492,12.617-4.136c0.363-0.607,1.089-0.91,1.815-1.214c0.246-0.206,1.158-0.272,1.382-0.293
			c-0.096-0.007-0.194-0.01-0.293-0.01c0.351,0,0.399,0,0.293,0.01c3.063,0.209,4.503,3.668,6.966,4.845
			c5.082,2.428,11.978,0.91,14.882-3.338c1.452-2.124,5.445-2.124,6.897,0c1.089,1.517,2.178,2.428,3.993,3.338
			c1.649,0.788,3.49,1.158,5.323,1.156c6.34-6.642,10.232-15.638,10.232-25.544c0-0.321-0.004-0.641-0.012-0.96
			C91.008,53.107,90.786,53.358,90.596,53.674z"/>
		<path fill="#CEECF8" d="M42.683,73.399c0.099,0,0.197,0.004,0.293,0.01C43.082,73.399,43.034,73.399,42.683,73.399z"/>
		
			<linearGradient id="SVGID_1_" gradientUnits="userSpaceOnUse" x1="-606.5026" y1="351.8437" x2="-604.6096" y2="353.7367" gradientTransform="matrix(30 0 0 -30 18208.5781 10658.0664)">
			<stop  offset="0" style="stop-color:#4BC8F2"/>
			<stop  offset="1" style="stop-color:#E8D9EB"/>
		</linearGradient>
		<path fill="url(#SVGID_1_)" d="M42.683,73.399c0.099,0,0.197,0.004,0.293,0.01C43.082,73.399,43.034,73.399,42.683,73.399z"/>
		<path fill="#CEECF8" d="M75.714,78.255c-1.815-0.91-2.904-1.821-3.993-3.338c-1.452-2.124-5.445-2.124-6.897,0
			c-2.904,4.249-9.8,5.766-14.882,3.338c-2.463-1.177-3.903-4.636-6.966-4.845c-0.224,0.021-1.136,0.088-1.382,0.293
			c-0.726,0.303-1.452,0.607-1.815,1.214c-2.49,3.644-7.917,5.275-12.617,4.136c6.757,7.268,16.399,11.817,27.105,11.817
			c10.53,0,20.032-4.399,26.771-11.458C79.204,79.412,77.364,79.043,75.714,78.255z"/>
		
			<linearGradient id="SVGID_2_" gradientUnits="userSpaceOnUse" x1="-606.2179" y1="351.559" x2="-604.325" y2="353.452" gradientTransform="matrix(30 0 0 -30 18208.5781 10658.0664)">
			<stop  offset="0" style="stop-color:#4BC8F2"/>
			<stop  offset="1" style="stop-color:#E8D9EB"/>
		</linearGradient>
		<path fill="url(#SVGID_2_)" d="M75.714,78.255c-1.815-0.91-2.904-1.821-3.993-3.338c-1.452-2.124-5.445-2.124-6.897,0
			c-2.904,4.249-9.8,5.766-14.882,3.338c-2.463-1.177-3.903-4.636-6.966-4.845c-0.224,0.021-1.136,0.088-1.382,0.293
			c-0.726,0.303-1.452,0.607-1.815,1.214c-2.49,3.644-7.917,5.275-12.617,4.136c6.757,7.268,16.399,11.817,27.105,11.817
			c10.53,0,20.032-4.399,26.771-11.458C79.204,79.412,77.364,79.043,75.714,78.255z"/>
		<ellipse fill="#74D0F0" cx="56.113" cy="43.053" rx="3.63" ry="3.035"/>
		<ellipse fill="#74D0F0" cx="81.522" cy="49.122" rx="3.63" ry="3.035"/>
		<ellipse fill="#74D0F0" cx="77.892" cy="36.984" rx="3.63" ry="3.035"/>
	</g>
</g>
<g id="Layer_2">
	<path fill="#395BA9" d="M49.226,26.915c0,0,1.899-3.217,4.704-5.031c4.209-2.721,8.828-1.729,11.549,2.48
		c1.817,2.811,0.822,7.425,0.822,7.425L49.226,26.915z"/>
	<g>
		<path fill="#2C459A" d="M51.929,25.58l0.496-2.31c0.137-0.638,0.765-1.044,1.403-0.907s1.044,0.765,0.907,1.403l-0.496,2.31
			c-0.137,0.638-0.765,1.044-1.403,0.907C52.198,26.846,51.792,26.218,51.929,25.58z"/>
		<path fill="#2C459A" d="M55.642,25.169l0.496-2.31c0.137-0.638,0.765-1.044,1.403-0.907c0.638,0.137,1.044,0.765,0.907,1.403
			l-0.496,2.31c-0.137,0.638-0.765,1.044-1.403,0.907S55.505,25.807,55.642,25.169z"/>
		<path fill="#2C459A" d="M59.064,26.111l0.786-3.663c0.137-0.638,0.765-1.044,1.403-0.907s1.044,0.765,0.907,1.403l-0.787,3.663
			c-0.137,0.638-0.765,1.044-1.403,0.907S58.927,26.749,59.064,26.111z"/>
		<path fill="#2C459A" d="M62.28,28.01l0.786-3.663c0.137-0.638,0.765-1.044,1.403-0.907c0.638,0.137,1.044,0.765,0.907,1.403
			l-0.786,3.663c-0.137,0.638-0.765,1.044-1.403,0.907C62.549,29.276,62.143,28.648,62.28,28.01z"/>
	</g>
	<path fill="#9ECBED" d="M31.494,38.476c-0.159-1.419,0.337-2.833,1.347-3.842c1.619-1.621,1.945-2.361,7.556-5.989
		c7.015-4.535,21.865-6.178,27.307,2.239s-1.658,18.974-7.27,22.602c-4.209,2.721-7.921,3.132-7.921,3.132s0.998,3.688,0.387,6.643
		c-0.259,1.258-1.298,2.206-2.575,2.348c-1.22,0.14-2.397-0.494-2.952-1.589c-0.714-1.423-0.262-4.754,0.024-6.085
		c0,0-3.368,0.222-5.511-2.405c-0.789-0.952-0.902-2.295-0.282-3.365c0.592-1.011,1.733-1.566,2.894-1.409
		c1.925,0.268,5.059,1.29,6.2,3.055c0,0,12.626-8.162,8.998-13.774c0,0-4.62-0.992-8.828,1.729
		c-2.655,1.716-10.56,6.632-17.945-0.39C32.122,40.607,31.615,39.58,31.494,38.476z"/>
	<path fill="#CAE3F6" d="M47.265,31.755c-0.388,0.251-0.499,0.768-0.248,1.156c0.026,0.041,0.056,0.079,0.088,0.114
		c0.234,0.255,0.446,0.529,0.633,0.82c0.488,0.755,0.641,1.562,0.468,2.468c-0.002,0.011-0.004,0.022-0.005,0.032
		c-0.003,0.011-0.005,0.021-0.007,0.032c-0.087,0.408-0.225,0.803-0.411,1.176c-0.203,0.414-0.032,0.915,0.382,1.117
		c0.414,0.203,0.913,0.032,1.117-0.381c0.016-0.033,0.032-0.066,0.049-0.1l0,0l0.002-0.004l0-0.001l0.001-0.002l0.001-0.003
		l0.001-0.002l0.001-0.003l0.001-0.002l0.002-0.004l0.001-0.002l0.001-0.003l0.001-0.002l0.001-0.003l0.001-0.002l0.001-0.003
		l0.001-0.002l0.002-0.004l0.001-0.001l0.002-0.006l0.002-0.004l0-0.001l0.002-0.005l0-0.001l0.002-0.005l0,0
		c0.154-0.333,0.28-0.679,0.378-1.033c0.001-0.004,0.003-0.009,0.004-0.014l0.002-0.007l0,0c0.001-0.004,0.003-0.009,0.004-0.013
		l0-0.001c0-0.002,0.001-0.004,0.001-0.006l0-0.001l0.002-0.005l0-0.002l0.001-0.005l0-0.002l0.001-0.005l0.001-0.002l0.001-0.005
		l0-0.002l0.001-0.005l0.001-0.003l0.001-0.004l0.001-0.003l0.001-0.003l0.001-0.004l0.001-0.003l0.001-0.004l0.001-0.002
		l0.001-0.005l0.001-0.002l0.001-0.006l0-0.001c0.022-0.087,0.042-0.175,0.061-0.265c0.003-0.014,0.005-0.028,0.008-0.042
		c0.003-0.015,0.007-0.03,0.01-0.045c0.139-0.7,0.129-1.422-0.03-2.117l0,0c-0.004-0.015-0.007-0.029-0.011-0.044
		c-0.002-0.007-0.004-0.015-0.006-0.022l0,0l-0.005-0.022l0,0c-0.002-0.007-0.004-0.015-0.005-0.022l0,0
		c-0.002-0.008-0.004-0.015-0.006-0.022v-0.001l-0.002-0.007c-0.001-0.005-0.003-0.01-0.004-0.015l0,0
		c-0.002-0.007-0.004-0.014-0.006-0.022l0-0.001c-0.002-0.007-0.004-0.014-0.006-0.022v-0.001c-0.001-0.002-0.001-0.005-0.002-0.007
		c-0.002-0.005-0.003-0.01-0.004-0.015v-0.001c-0.001-0.003-0.001-0.005-0.002-0.007l0,0l-0.002-0.007l0,0
		c-0.001-0.003-0.001-0.005-0.002-0.007l0,0l-0.002-0.007c-0.002-0.005-0.003-0.01-0.004-0.015l0-0.001l-0.002-0.007l-0.002-0.008
		c-0.001-0.003-0.001-0.005-0.002-0.007v-0.001c0-0.002-0.001-0.005-0.002-0.007v-0.001l-0.002-0.007l0,0l-0.002-0.006l0-0.001
		l-0.002-0.007l0,0l-0.002-0.007l0,0l-0.002-0.007l0-0.001c-0.001-0.002-0.001-0.004-0.002-0.007l0,0
		c0-0.002-0.001-0.005-0.002-0.007l0,0l-0.002-0.007l-0.001-0.001l-0.002-0.007l0,0c0-0.002-0.001-0.005-0.002-0.007l0,0
		l-0.002-0.007l0-0.001l-0.002-0.007l0,0c-0.001-0.002-0.002-0.005-0.002-0.007l-0.002-0.007l0-0.001
		c-0.001-0.003-0.001-0.005-0.002-0.007c-0.001-0.003-0.001-0.005-0.002-0.007l0,0c0-0.002-0.001-0.005-0.002-0.007l0-0.001
		c-0.001-0.002-0.002-0.005-0.002-0.007v-0.001c-0.001-0.002-0.002-0.005-0.002-0.007l0,0c-0.001-0.002-0.001-0.005-0.002-0.007
		l-0.003-0.008l0-0.001l-0.002-0.007l0-0.001l-0.003-0.008c-0.001-0.002-0.002-0.005-0.002-0.007l0-0.001
		c-0.001-0.002-0.001-0.004-0.003-0.006v-0.001l-0.002-0.007l0-0.001c-0.001-0.002-0.002-0.005-0.002-0.007l0-0.001
		c-0.001-0.002-0.002-0.004-0.002-0.006l0-0.001l-0.002-0.007l0-0.001c-0.001-0.002-0.002-0.004-0.003-0.007l0-0.001
		c-0.001-0.002-0.001-0.004-0.002-0.007l0,0l-0.002-0.007l-0.001-0.001l-0.002-0.007l0-0.001l-0.002-0.007l0-0.001l-0.003-0.007
		l0-0.001l-0.003-0.007l0-0.001l-0.002-0.006l0-0.001c-0.001-0.002-0.001-0.004-0.003-0.006l0-0.002
		c-0.001-0.002-0.002-0.004-0.003-0.006l0-0.001c-0.001-0.002-0.001-0.004-0.002-0.006l0-0.002l-0.002-0.006l-0.001-0.002
		l-0.003-0.006l0-0.001l-0.002-0.006l0-0.001l-0.003-0.007l0-0.002c-0.001-0.002-0.002-0.004-0.003-0.006l0-0.001l-0.002-0.006
		l-0.001-0.001c-0.001-0.002-0.002-0.004-0.003-0.006l-0.003-0.008l0-0.001l-0.002-0.006l-0.001-0.001l-0.003-0.006l-0.003-0.008
		l0-0.001l-0.003-0.006l0-0.001c-0.001-0.002-0.002-0.004-0.003-0.007l-0.001-0.001l-0.003-0.006l0-0.001l-0.003-0.006l-0.001-0.001
		c-0.001-0.002-0.002-0.004-0.003-0.006l-0.001-0.002c-0.001-0.002-0.002-0.004-0.003-0.006l0-0.001
		c-0.001-0.002-0.002-0.004-0.003-0.006l-0.004-0.009c-0.001-0.002-0.002-0.004-0.003-0.006l0-0.001l-0.003-0.006l0-0.001
		l-0.003-0.006l-0.001-0.001c-0.001-0.002-0.002-0.004-0.003-0.007l0-0.001c-0.001-0.002-0.002-0.004-0.003-0.006l-0.001-0.002
		c-0.001-0.002-0.002-0.004-0.003-0.006l-0.001-0.002c-0.001-0.002-0.002-0.004-0.003-0.007l-0.001-0.001
		c-0.001-0.002-0.002-0.004-0.003-0.006l0-0.001c-0.001-0.002-0.002-0.004-0.003-0.006l-0.001-0.002
		c-0.001-0.002-0.002-0.004-0.003-0.006l0-0.001l-0.003-0.006l-0.001-0.001c-0.001-0.002-0.002-0.004-0.003-0.006l-0.001-0.002
		l-0.003-0.006l0-0.001c-0.001-0.002-0.002-0.004-0.003-0.006l-0.001-0.001l-0.003-0.006l-0.001-0.002l-0.003-0.006l0-0.001
		c-0.001-0.002-0.002-0.004-0.003-0.006l-0.001-0.002l-0.003-0.006l-0.001-0.001l-0.003-0.007l0-0.001l-0.003-0.006l-0.001-0.001
		l-0.003-0.006l-0.001-0.002c-0.001-0.002-0.002-0.004-0.003-0.006l0-0.001l-0.003-0.006L49.5,33.591
		c-0.001-0.002-0.002-0.004-0.003-0.006l-0.001-0.001l-0.003-0.006l0-0.001l-0.003-0.006l-0.001-0.001l-0.003-0.006l-0.001-0.001
		c-0.001-0.002-0.002-0.005-0.003-0.007l0-0.001l-0.003-0.006l-0.001-0.001l-0.003-0.006l-0.001-0.001l-0.003-0.007l0-0.001
		l-0.003-0.007l0-0.001l-0.003-0.007l-0.001-0.002l-0.003-0.007l0,0c-0.001-0.002-0.002-0.004-0.003-0.006L49.458,33.5
		c-0.001-0.002-0.002-0.004-0.003-0.006l-0.001-0.002c-0.001-0.002-0.002-0.004-0.003-0.006l0-0.001l-0.003-0.006l-0.001-0.001
		c-0.001-0.002-0.002-0.004-0.003-0.006l-0.001-0.002l-0.004-0.006l0-0.001c-0.001-0.002-0.002-0.004-0.003-0.006l-0.001-0.002
		c-0.001-0.002-0.002-0.004-0.003-0.007l-0.001-0.001c-0.001-0.002-0.002-0.005-0.003-0.007l0-0.001l-0.003-0.006l-0.001-0.001
		l-0.003-0.006l-0.001-0.002l-0.003-0.007l0-0.001c-0.001-0.002-0.002-0.004-0.003-0.006l-0.001-0.002
		c-0.001-0.002-0.002-0.004-0.003-0.006L49.407,33.4c-0.001-0.002-0.002-0.004-0.004-0.006l0-0.001l-0.003-0.006L49.4,33.386
		c-0.001-0.002-0.003-0.004-0.004-0.007l-0.001-0.001c-0.001-0.002-0.002-0.005-0.003-0.007l0,0
		c-0.001-0.002-0.002-0.004-0.003-0.006l-0.001-0.001c-0.001-0.002-0.002-0.004-0.004-0.006l-0.001-0.002l-0.004-0.006l0,0
		c-0.001-0.002-0.002-0.005-0.003-0.007l-0.001-0.001c-0.001-0.002-0.002-0.004-0.004-0.006l-0.001-0.002l-0.004-0.006l0-0.001
		l-0.003-0.006l-0.001-0.001c-0.001-0.002-0.002-0.004-0.004-0.006l-0.001-0.002l-0.004-0.007l0-0.001
		c-0.001-0.002-0.002-0.004-0.003-0.006l-0.001-0.001c-0.001-0.002-0.002-0.005-0.004-0.007l-0.001-0.001l-0.004-0.007l0,0
		c-0.001-0.002-0.003-0.004-0.004-0.006l-0.001-0.001c-0.001-0.002-0.002-0.004-0.004-0.006l-0.001-0.001
		c-0.001-0.002-0.003-0.005-0.004-0.007l0,0c-0.001-0.002-0.003-0.004-0.004-0.007l-0.001-0.001
		c-0.001-0.002-0.003-0.004-0.004-0.007l-0.001-0.001c-0.001-0.003-0.003-0.005-0.004-0.007c-0.001-0.003-0.003-0.005-0.004-0.007
		l-0.001-0.001l-0.004-0.007l-0.001-0.001l-0.004-0.007l0,0l-0.004-0.006L49.3,33.203l-0.004-0.006l-0.001-0.001
		c-0.001-0.002-0.003-0.004-0.004-0.007l0,0c-0.001-0.002-0.003-0.004-0.004-0.006l-0.001-0.002
		c-0.001-0.002-0.003-0.004-0.004-0.006l-0.001-0.001l-0.004-0.007l0,0c-0.001-0.002-0.002-0.004-0.004-0.006l-0.001-0.001
		L49.27,33.15l-0.001-0.001c-0.001-0.002-0.003-0.004-0.004-0.006l0,0c-0.001-0.002-0.003-0.004-0.004-0.007l-0.001-0.001
		l-0.004-0.006l-0.001-0.001c-0.001-0.002-0.003-0.004-0.004-0.007l0,0l-0.004-0.006l-0.001-0.002l-0.004-0.006l-0.001-0.001
		l-0.004-0.006l0-0.001c-0.001-0.002-0.003-0.004-0.004-0.006l-0.001-0.001c-0.001-0.002-0.003-0.004-0.004-0.006l-0.001-0.001
		c-0.001-0.002-0.003-0.005-0.004-0.007l0,0c-0.001-0.002-0.003-0.004-0.004-0.006l-0.001-0.001
		c-0.001-0.002-0.003-0.004-0.004-0.006l-0.005-0.008l0-0.001l-0.004-0.006l-0.001-0.002l-0.005-0.008l-0.004-0.006l-0.004-0.007
		l-0.001-0.002c-0.001-0.002-0.003-0.004-0.004-0.006l-0.001-0.001c-0.001-0.003-0.003-0.005-0.004-0.007
		c-0.001-0.002-0.003-0.004-0.004-0.007l-0.001-0.001c-0.001-0.002-0.003-0.004-0.004-0.007l-0.01-0.016
		c-0.001-0.002-0.003-0.004-0.004-0.007l-0.001-0.002c-0.003-0.004-0.006-0.009-0.009-0.014l-0.001-0.001
		c-0.001-0.002-0.003-0.004-0.004-0.007l-0.029-0.046c-0.001-0.002-0.003-0.004-0.004-0.006l0-0.001
		c-0.001-0.001-0.002-0.003-0.003-0.005l-0.001-0.002c-0.001-0.001-0.002-0.003-0.003-0.004l-0.001-0.001l-0.008-0.011l-0.005-0.007
		c-0.003-0.004-0.005-0.008-0.008-0.012l-0.008-0.012l-0.001-0.001c-0.003-0.004-0.005-0.008-0.008-0.011l-0.001-0.001l-0.004-0.005
		l0,0c-0.003-0.004-0.005-0.008-0.008-0.012l0,0l-0.004-0.005l0,0l-0.008-0.012l-0.004-0.006l0,0
		c-0.004-0.006-0.008-0.012-0.012-0.018l-0.004-0.006c-0.004-0.006-0.008-0.011-0.012-0.018l0,0
		c-0.207-0.302-0.435-0.588-0.683-0.856c-0.276-0.295-0.723-0.351-1.063-0.132L47.265,31.755z"/>
	<path fill="#CAE3F6" d="M58.33,54.846c-0.387,0.25-0.905,0.139-1.155-0.248c-0.25-0.387-0.14-0.903,0.247-1.154
		c0.041-0.027,4.034-2.67,6.292-7.879c2.191-5.057-0.236-8.911-0.261-8.95c-0.25-0.387-0.14-0.904,0.248-1.155
		c0.387-0.25,0.905-0.139,1.155,0.248c0.121,0.188,2.934,4.652,0.391,10.521C62.779,51.923,58.511,54.729,58.33,54.846z"/>
	<path fill="#71AADC" d="M49.485,38.694c-0.772,0.505-0.989,1.54-0.485,2.312c0.489,0.748,1.48,0.979,2.249,0.524l0.003-0.001
		c0.002-0.001,0.004-0.003,0.007-0.004l0.001-0.001c0.003-0.002,0.005-0.003,0.008-0.005l0.001-0.001l0.009-0.006l0.002-0.001
		c0.002-0.001,0.004-0.003,0.007-0.004c0.014-0.008,0.028-0.016,0.042-0.024c0.012-0.007,0.024-0.015,0.037-0.022
		c0.014-0.007,0.028-0.015,0.041-0.023c2.83-1.613,5.748-1.658,7.253-1.538c0.92,0.071,1.723-0.617,1.794-1.537
		c0.071-0.918-0.615-1.72-1.533-1.793c-1.874-0.15-5.557-0.093-9.167,1.965c-0.016,0.009-0.032,0.019-0.047,0.028
		c-0.019,0.01-0.037,0.021-0.056,0.031l-0.103,0.06C49.527,38.668,49.506,38.681,49.485,38.694z"/>
	<path fill="#3981C4" d="M67.704,30.883c-5.441-8.417-20.292-6.773-27.307-2.239c-5.611,3.628-5.937,4.368-7.556,5.989
		c-0.434,0.443-0.776,0.969-1.005,1.545c1.918-1.169,12.07-7.021,22.916-6.868c12.045,0.17,19.378,11.513,5.682,24.175
		C66.046,49.857,73.146,39.301,67.704,30.883z"/>
	<path fill="#2C459A" d="M53.325,23.371c-0.388,0.25-0.499,0.767-0.249,1.155c0.156,0.242,0.426,0.386,0.714,0.382
		c1.277-0.027,2.554,0.048,3.82,0.222l0.016,0.002l0,0c0.005,0.001,0.01,0.002,0.015,0.002h0.001
		c0.005,0.001,0.011,0.001,0.015,0.002l0,0c0.016,0.002,0.032,0.005,0.048,0.007l0.001,0c0.005,0.001,0.01,0.002,0.015,0.002h0.001
		c0.005,0.001,0.01,0.001,0.015,0.002l0.002,0c0.005,0.001,0.01,0.001,0.015,0.002l0.001,0c0.005,0.001,0.01,0.001,0.015,0.002
		h0.001l0.015,0.002l0.001,0c0.005,0.001,0.01,0.001,0.015,0.002l0.002,0c0.004,0.001,0.01,0.001,0.014,0.002l0.002,0
		c0.005,0.001,0.009,0.001,0.014,0.002l0.003,0c0.004,0.001,0.009,0.002,0.014,0.002l0.002,0c0.004,0.001,0.01,0.001,0.015,0.002
		l0.001,0c0.005,0.001,0.01,0.001,0.015,0.002l0.002,0c0.005,0.001,0.009,0.001,0.014,0.002l0.003,0
		c0.005,0.001,0.009,0.001,0.013,0.002l0.003,0c0.005,0.001,0.009,0.001,0.013,0.002l0.003,0c0.004,0.001,0.009,0.001,0.013,0.002
		l0.003,0.001c0.004,0.001,0.009,0.001,0.013,0.002l0.004,0.001c0.004,0.001,0.009,0.001,0.013,0.002l0.003,0l0.013,0.002L58,25.19
		c0.004,0.001,0.008,0.001,0.013,0.002l0.003,0l0.012,0.002l0.004,0.001l0.013,0.002l0.003,0l0.013,0.002l0.004,0.001l0.013,0.002
		l0.003,0.001c0.004,0.001,0.009,0.001,0.012,0.002l0.004,0.001c0.004,0.001,0.008,0.001,0.012,0.002l0.004,0.001l0.012,0.002
		l0.004,0.001c0.004,0.001,0.008,0.001,0.011,0.002l0.005,0.001c0.005,0.001,0.008,0.001,0.012,0.002l0.005,0.001
		c0.004,0.001,0.008,0.001,0.012,0.002l0.004,0.001c0.004,0.001,0.008,0.001,0.012,0.002c0.001,0,0.003,0,0.004,0
		c0.004,0.001,0.008,0.002,0.012,0.002l0.004,0c0.004,0.001,0.008,0.002,0.012,0.002l0.004,0.001
		c0.004,0.001,0.008,0.001,0.012,0.002l0.004,0.001c0.004,0.001,0.008,0.001,0.012,0.002l0.005,0.001
		c0.004,0.001,0.008,0.001,0.012,0.002l0.005,0.001c0.004,0.001,0.008,0.001,0.011,0.002l0.005,0.001l0.011,0.002l0.005,0.001
		c0.004,0.001,0.007,0.001,0.011,0.002l0.005,0.001l0.011,0.002c0.002,0,0.004,0.001,0.005,0.001l0.011,0.002l0.006,0.001
		c0.003,0,0.007,0.001,0.011,0.002l0.005,0.001c0.004,0.001,0.007,0.001,0.011,0.002l0.005,0.001l0.011,0.002l0.005,0.001
		c0.004,0.001,0.007,0.001,0.011,0.002c0.002,0,0.004,0.001,0.005,0.001c0.004,0.001,0.007,0.001,0.011,0.002l0.006,0.001
		c0.003,0.001,0.006,0.001,0.01,0.002l0.007,0.001c0.004,0.001,0.007,0.001,0.011,0.002l0.005,0.001
		c0.003,0.001,0.007,0.001,0.01,0.002l0.006,0.001c0.004,0.001,0.006,0.001,0.01,0.002l0.005,0.001l0.01,0.002l0.005,0.001
		c0.004,0.001,0.007,0.001,0.011,0.002l0.006,0.001l0.009,0.002c0.003,0,0.005,0.001,0.008,0.001c0.003,0,0.005,0.001,0.008,0.001
		c0.003,0,0.005,0.001,0.008,0.001c0.003,0.001,0.006,0.001,0.01,0.002c0.002,0,0.004,0.001,0.006,0.001l0.01,0.002l0.006,0.001
		l0.009,0.002l0.008,0.001l0.008,0.002c0.003,0,0.005,0.001,0.008,0.001l0.008,0.002c0.003,0,0.005,0.001,0.008,0.001l0.008,0.002
		l0.007,0.002l0.009,0.002l0.015,0.003c0.002,0,0.004,0.001,0.006,0.001l0.01,0.002c0.003,0,0.005,0.001,0.008,0.002
		c0.003,0,0.005,0.001,0.007,0.001l0.008,0.001c0.003,0.001,0.005,0.001,0.008,0.002l0.009,0.002l0.007,0.001
		c0.003,0.001,0.005,0.001,0.008,0.001c0.003,0.001,0.006,0.001,0.009,0.002l0.006,0.001c0.002,0,0.006,0.001,0.009,0.002
		l0.007,0.001l0.008,0.002l0.015,0.003l0.01,0.002l0.005,0.001c0.004,0.001,0.007,0.001,0.011,0.002l0.005,0.001l0.01,0.002
		l0.006,0.001l0.009,0.002l0.008,0.002l0.008,0.002c0.003,0,0.005,0.001,0.007,0.001c0.003,0,0.006,0.001,0.01,0.002l0.006,0.001
		c0.004,0.001,0.007,0.001,0.01,0.002c0.002,0,0.004,0.001,0.005,0.001c0.004,0.001,0.007,0.001,0.011,0.002l0.005,0.001
		c0.004,0.001,0.007,0.001,0.01,0.002l0.015,0.003c0.003,0,0.005,0.001,0.008,0.001l0.01,0.002c0.002,0,0.003,0.001,0.006,0.001
		c0.004,0.001,0.007,0.001,0.01,0.002l0.005,0.001c0.004,0.001,0.007,0.002,0.011,0.002l0.004,0.001
		c0.004,0.001,0.008,0.001,0.012,0.002l0.003,0.001c0.004,0.001,0.008,0.002,0.012,0.003l0.002,0
		c0.007,0.001,0.013,0.003,0.019,0.004l0.002,0c0.004,0.001,0.008,0.002,0.012,0.003l0.004,0.001
		c0.004,0.001,0.007,0.002,0.011,0.002l0.004,0.001c0.004,0.001,0.007,0.002,0.011,0.003l0.005,0.001
		c0.004,0.001,0.008,0.002,0.011,0.002l0.003,0.001c0.004,0.001,0.008,0.002,0.012,0.002l0.003,0.001
		c0.01,0.002,0.021,0.005,0.032,0.007l0.002,0c0.004,0.001,0.009,0.002,0.013,0.003l0.003,0.001
		c0.004,0.001,0.008,0.002,0.012,0.003l0.004,0.001l0.012,0.003l0.018,0.004l0.016,0.004l0.003,0.001
		c0.004,0.001,0.008,0.002,0.012,0.003l0.003,0.001c0.004,0.001,0.008,0.002,0.012,0.003l0.003,0.001
		c0.004,0.001,0.008,0.002,0.012,0.003l0.002,0l0.013,0.003l0.002,0c0.011,0.003,0.022,0.005,0.033,0.008l0.002,0
		c0.004,0.001,0.009,0.002,0.013,0.003l0.002,0l0.013,0.003l0.002,0l0.013,0.003l0.003,0.001c0.004,0.001,0.008,0.002,0.012,0.003
		l0.003,0.001c0.011,0.003,0.022,0.005,0.033,0.008l0.002,0c0.004,0.001,0.008,0.002,0.011,0.003l0.004,0.001
		c0.004,0.001,0.008,0.002,0.011,0.003l0.003,0.001l0.013,0.003l0.002,0c0.004,0.001,0.009,0.002,0.013,0.003l0,0
		c0.021,0.005,0.043,0.01,0.065,0.016l0,0c0.004,0.001,0.009,0.002,0.014,0.003l0.001,0c0.017,0.004,0.033,0.008,0.05,0.012l0,0
		c0.009,0.002,0.019,0.005,0.028,0.007l0.001,0l0.014,0.003l0.014,0.004l0.001,0c0.052,0.013,0.105,0.027,0.157,0.04l0,0
		c0.005,0.001,0.009,0.002,0.014,0.004l0.001,0c0.016,0.004,0.033,0.009,0.049,0.013c0.01,0.003,0.019,0.005,0.029,0.008
		c0.005,0.001,0.01,0.003,0.014,0.004l0,0c0.026,0.007,0.052,0.014,0.078,0.021l0,0c0.036,0.01,0.071,0.019,0.107,0.029l0,0
		c0.021,0.006,0.042,0.012,0.063,0.018l0.001,0l0.013,0.004l0.001,0c0.005,0.001,0.009,0.003,0.014,0.004l0,0
		c0.026,0.007,0.052,0.015,0.077,0.022l0,0l0.014,0.004l0,0c0.011,0.003,0.023,0.007,0.035,0.01
		c0.004,0.001,0.008,0.002,0.012,0.004l0.003,0.001c0.004,0.001,0.008,0.002,0.011,0.003l0.003,0.001l0.012,0.003l0.003,0.001
		c0.004,0.001,0.008,0.002,0.012,0.004l0.001,0c0.016,0.005,0.031,0.009,0.047,0.014l0.002,0.001l0.013,0.004l0.002,0.001
		l0.012,0.004l0.003,0.001c0.004,0.001,0.008,0.002,0.012,0.004l0.002,0l0.033,0.01l0.001,0c0.004,0.001,0.008,0.003,0.013,0.004
		l0.002,0c0.004,0.001,0.008,0.002,0.012,0.004l0.003,0.001c0.004,0.001,0.007,0.002,0.012,0.004l0.003,0.001l0.011,0.004
		l0.004,0.001c0.003,0.001,0.008,0.003,0.011,0.003l0.001,0c0.006,0.002,0.012,0.004,0.018,0.006l0.003,0.001l0.011,0.004
		l0.003,0.001c0.004,0.001,0.008,0.003,0.011,0.004l0.003,0.001l0.012,0.004l0.002,0.001c0.004,0.001,0.008,0.003,0.012,0.004
		l0.002,0.001c0.006,0.002,0.011,0.004,0.017,0.005l0.003,0.001c0.004,0.001,0.008,0.002,0.012,0.004l0.003,0.001
		c0.004,0.001,0.008,0.002,0.012,0.004l0.003,0.001c0.004,0.001,0.008,0.003,0.011,0.004l0.004,0.001
		c0.004,0.001,0.007,0.002,0.011,0.003c0.001,0.001,0.002,0.001,0.004,0.001c0.004,0.001,0.007,0.002,0.011,0.003l0.003,0.001
		c0.004,0.001,0.008,0.003,0.011,0.004l0.001,0c0.005,0.002,0.011,0.004,0.016,0.005l0.005,0.002l0.01,0.003l0.005,0.002
		c0.004,0.001,0.007,0.002,0.01,0.003l0.004,0.001c0.004,0.001,0.007,0.002,0.011,0.004l0.005,0.001
		c0.003,0.001,0.007,0.002,0.01,0.003l0.007,0.002c0.003,0.001,0.005,0.002,0.008,0.003c0.002,0,0.005,0.001,0.007,0.002
		c0.004,0.001,0.007,0.002,0.011,0.003l0.004,0.001c0.004,0.001,0.007,0.002,0.011,0.003l0.004,0.001
		c0.003,0.001,0.007,0.002,0.01,0.004l0.005,0.001c0.003,0.001,0.007,0.002,0.01,0.003l0.004,0.001
		c0.003,0.001,0.007,0.002,0.01,0.003l0.005,0.001c0.003,0.001,0.007,0.002,0.01,0.003c0.003,0.001,0.005,0.002,0.008,0.003
		c0.003,0.001,0.005,0.002,0.008,0.003l0.006,0.002c0.003,0.001,0.007,0.002,0.01,0.003l0.004,0.001
		c0.003,0.001,0.007,0.003,0.01,0.004l0.004,0.001l0.011,0.004c0.002,0.001,0.004,0.001,0.005,0.002l0.009,0.003
		c0.002,0.001,0.005,0.002,0.007,0.003l0.008,0.003c0.002,0.001,0.006,0.002,0.008,0.003c0.003,0.001,0.006,0.002,0.009,0.003
		c0.002,0.001,0.004,0.001,0.006,0.002l0.009,0.003l0.006,0.002l0.009,0.003c0.002,0.001,0.003,0.001,0.005,0.002
		c0.003,0.001,0.006,0.002,0.009,0.003l0.006,0.002l0.008,0.003c0.003,0.001,0.005,0.002,0.008,0.003l0.006,0.002l0.008,0.003
		c0.002,0.001,0.005,0.001,0.006,0.002l0.008,0.003c0.002,0.001,0.005,0.002,0.008,0.003l0.007,0.003
		c0.003,0.001,0.005,0.002,0.008,0.003l0.007,0.002c0.003,0.001,0.005,0.002,0.008,0.003c0.003,0.001,0.006,0.002,0.008,0.003
		c0.002,0.001,0.005,0.002,0.007,0.002c0.003,0.001,0.006,0.002,0.009,0.003c0.002,0.001,0.004,0.001,0.006,0.002
		c0.003,0.001,0.006,0.002,0.009,0.003l0.005,0.002c0.003,0.001,0.007,0.002,0.009,0.003c0.002,0.001,0.004,0.002,0.007,0.002
		c0.003,0.001,0.005,0.002,0.008,0.003c0.002,0.001,0.004,0.002,0.007,0.002c0.003,0.001,0.005,0.002,0.008,0.003l0.007,0.002
		c0.003,0.001,0.007,0.002,0.009,0.003l0.005,0.002l0.009,0.003l0.005,0.002l0.014,0.005l0.01,0.004l0.006,0.002l0.024,0.009
		c0.002,0.001,0.004,0.001,0.006,0.002c0.003,0.001,0.007,0.002,0.009,0.003c0.002,0.001,0.003,0.001,0.005,0.002
		c0.004,0.001,0.006,0.002,0.01,0.004l0.015,0.006c0.001,0,0.003,0.001,0.004,0.001c0.004,0.001,0.006,0.002,0.01,0.004
		c0.002,0,0.004,0.001,0.006,0.002c0.003,0.001,0.006,0.002,0.009,0.003l0.006,0.002c0.003,0.001,0.007,0.002,0.01,0.004
		l0.004,0.002c0.003,0.001,0.007,0.003,0.01,0.004l0.005,0.002l0.009,0.004l0.005,0.002l0.01,0.004l0.004,0.002l0.01,0.004
		l0.005,0.002c0.003,0.001,0.007,0.002,0.01,0.004l0.005,0.002c0.003,0.001,0.007,0.003,0.01,0.004l0.004,0.001l0.01,0.004
		l0.004,0.001c0.004,0.001,0.008,0.003,0.011,0.004l0.018,0.007l0.011,0.004l0.016,0.006l0.003,0.001l0.012,0.005l0.003,0.001
		c0.004,0.002,0.008,0.003,0.012,0.005l0.003,0.001c0.004,0.001,0.008,0.003,0.012,0.005l0.003,0.001
		c0.004,0.001,0.008,0.003,0.012,0.005l0.002,0.001c0.004,0.002,0.008,0.003,0.012,0.005l0.002,0.001
		c0.004,0.002,0.008,0.003,0.013,0.005l0.003,0.001c0.004,0.001,0.008,0.003,0.012,0.005l0.003,0.001
		c0.004,0.001,0.008,0.003,0.011,0.004l0.003,0.001c0.003,0.001,0.008,0.003,0.011,0.005l0.003,0.001
		c0.004,0.002,0.008,0.003,0.012,0.005l0.003,0.001c0.004,0.002,0.008,0.003,0.012,0.005l0.002,0.001l0.013,0.005l0.002,0.001
		l0.012,0.005l0.002,0.001c0.004,0.001,0.008,0.003,0.012,0.005l0.003,0.001c0.004,0.001,0.009,0.004,0.012,0.005l0.003,0.001
		l0.012,0.005l0.002,0.001c0.004,0.002,0.008,0.003,0.013,0.005l0.001,0c0.004,0.002,0.009,0.004,0.014,0.006l0.001,0
		c0.005,0.002,0.009,0.004,0.013,0.005l0.001,0c0.004,0.001,0.009,0.004,0.013,0.005l0.002,0.001
		c0.004,0.002,0.008,0.003,0.013,0.005l0.002,0.001l0.013,0.005l0.001,0.001c0.004,0.002,0.009,0.004,0.013,0.005l0.001,0.001
		c0.014,0.006,0.029,0.011,0.043,0.016c0.014,0.007,0.028,0.013,0.042,0.019l0.001,0c0.004,0.002,0.007,0.003,0.011,0.005l0.001,0
		c0.004,0.002,0.008,0.003,0.012,0.005l0,0c1.023,0.423,1.99,0.971,2.878,1.631c0.37,0.276,0.893,0.199,1.169-0.171
		c0.275-0.369,0.199-0.891-0.169-1.167c-1.006-0.747-2.101-1.367-3.26-1.845c-0.016-0.006-0.032-0.013-0.048-0.018
		c-0.015-0.007-0.031-0.014-0.047-0.021c-2.533-1.039-5.591-1.556-8.846-1.497c-0.156,0.003-0.307,0.049-0.438,0.133L53.325,23.371z
		"/>
	<path fill="#3981C4" d="M46.42,28.729c0.501,0.775,0.279,1.809-0.496,2.31c-0.775,0.501-1.809,0.279-2.31-0.496
		c-0.501-0.775-0.279-1.809,0.496-2.31C44.885,27.732,45.919,27.955,46.42,28.729z"/>
	<path fill="#3981C4" d="M52.443,28.814c0.501,0.775,0.279,1.809-0.496,2.31s-1.809,0.279-2.31-0.496
		c-0.501-0.775-0.279-1.809,0.496-2.31S51.942,28.04,52.443,28.814z"/>
	<path fill="#2B347B" d="M39.406,33.264c0.501,0.775,0.279,1.809-0.496,2.31c-0.775,0.501-1.809,0.279-2.31-0.496
		c-0.501-0.775-0.279-1.809,0.496-2.31C37.87,32.267,38.905,32.489,39.406,33.264z"/>
	<path fill="#58A0D7" d="M37.549,33.469c0.25,0.387,0.139,0.905-0.248,1.155c-0.387,0.25-0.904,0.139-1.155-0.248
		c-0.25-0.387-0.14-0.904,0.248-1.155C36.782,32.971,37.299,33.082,37.549,33.469z"/>
	<path fill="#71AADC" d="M37.216,40.647c-0.387,0.251-0.904,0.14-1.154-0.247c0,0,0,0,0-0.001l-0.372-0.576
		c-0.154-0.242-0.424-0.385-0.711-0.378c-3.335,0.122-4.34-1.281-4.444-1.442c-0.251-0.388-0.139-0.905,0.249-1.155
		c0.376-0.243,0.877-0.146,1.136,0.219c0.047,0.055,0.736,0.79,2.998,0.708c0.875-0.027,1.7,0.406,2.175,1.141l0.372,0.576
		c0.251,0.387,0.14,0.904-0.247,1.154C37.217,40.646,37.217,40.646,37.216,40.647z"/>
	<path fill="#3A6DB5" d="M37.464,39.492c0.25,0.387,0.139,0.904-0.248,1.155c-0.387,0.25-0.904,0.14-1.155-0.248
		c-0.25-0.387-0.14-0.904,0.248-1.155C36.697,38.993,37.214,39.105,37.464,39.492z"/>
	<path fill="#CAE3F6" d="M33.417,39.563c-0.388,0.25-0.499,0.767-0.249,1.155c0.143,0.222,0.382,0.363,0.646,0.38
		c0.235,0.016,0.478,0.024,0.726,0.025l0.118,0.183c0.618,0.954,1.8,1.374,2.881,1.022c0.044-0.014,0.087-0.032,0.128-0.054
		c0.044-0.012,0.088-0.028,0.13-0.047c0.083-0.038,0.164-0.08,0.243-0.127c0.009-0.005,0.019-0.011,0.028-0.017
		c0.387-0.251,0.498-0.768,0.247-1.155c-0.244-0.377-0.742-0.493-1.127-0.265l-0.003,0.002c-0.026,0.015-0.052,0.029-0.079,0.041
		c-0.014,0.006-0.028,0.013-0.041,0.02c-0.015,0.004-0.029,0.008-0.044,0.013c-0.277,0.09-0.58,0.029-0.801-0.16l-0.002-0.002
		c-0.003-0.002-0.005-0.005-0.008-0.007l0,0l-0.002-0.002c-0.003-0.002-0.005-0.005-0.008-0.007l0,0l-0.002-0.002l0,0l-0.002-0.001
		c-0.002-0.002-0.004-0.004-0.006-0.005l-0.004-0.004c-0.003-0.002-0.005-0.005-0.007-0.007l0,0l-0.001-0.001l0,0l-0.002-0.002
		c-0.001-0.001-0.002-0.003-0.003-0.004l-0.002-0.002l0,0l-0.001-0.002l0,0l-0.007-0.007l0,0l-0.001-0.001l-0.001,0l-0.001-0.001
		l0,0l-0.003-0.004l0,0l-0.001-0.002l0,0l-0.001-0.001l0,0l-0.001-0.001l-0.001,0l-0.001-0.001l0,0l-0.003-0.004l0,0l-0.001-0.001
		l0,0l-0.001-0.001l0,0L36.139,40.5l-0.001,0l-0.003-0.004l0,0l-0.001-0.001l0,0l-0.001-0.001l0,0L36.13,40.49l0,0
		c-0.001-0.001-0.002-0.003-0.003-0.004l0,0l-0.001-0.001l0,0l-0.001-0.001l0,0l-0.001-0.001l0,0l-0.001-0.001l0,0l-0.002-0.002l0,0
		l-0.001-0.002l-0.001-0.001l-0.001-0.001l-0.001-0.001l-0.001-0.001l-0.001-0.001l-0.001-0.002l-0.002-0.002l-0.001-0.002l0-0.001
		l-0.001-0.001l0-0.001l-0.001-0.001l0-0.001l-0.001-0.001l0-0.001l-0.002-0.002L36.1,40.453l-0.001-0.001l-0.001-0.002
		l-0.001-0.001l-0.001-0.002l-0.001,0l-0.003-0.004l0-0.001L36.09,40.44l-0.002-0.003l-0.001-0.001l-0.002-0.003l-0.002-0.002
		l-0.002-0.003l-0.001-0.001l-0.003-0.005l-0.001-0.002l-0.003-0.005l-0.001-0.001l-0.383-0.592
		c-0.154-0.242-0.424-0.385-0.711-0.378l-0.009,0l-0.004,0l-0.005,0l-0.005,0h-0.005l-0.005,0l-0.004,0c-0.002,0-0.004,0-0.005,0
		h-0.004c-0.001,0-0.004,0-0.005,0l-0.004,0c-0.002,0-0.004,0-0.006,0l-0.003,0c-0.002,0-0.004,0-0.006,0l-0.003,0l-0.006,0h-0.002
		l-0.007,0l0,0c-0.011,0-0.023,0.001-0.034,0.001h-0.001c-0.003,0-0.005,0-0.008,0h-0.001l-0.008,0l-0.001,0h-0.008h-0.001
		c-0.003,0-0.005,0-0.008,0h-0.001l-0.008,0h-0.001c-0.026,0.001-0.052,0.001-0.078,0.001c-0.097,0.001-0.193,0.001-0.286,0l0,0
		l-0.008,0l0,0h-0.008H34.43c-0.002,0-0.005,0-0.008,0l0,0c-0.019,0-0.037-0.001-0.056-0.001l-0.002,0l-0.006,0l-0.002,0l-0.006,0
		l-0.002,0l-0.006,0h-0.003l-0.006,0h-0.003l-0.006,0l-0.002,0h-0.006l-0.002,0l-0.019,0h-0.003l-0.004,0h-0.004l-0.004,0l-0.008,0
		l-0.005,0l-0.003,0l-0.005,0h-0.004l-0.005,0h-0.004l-0.005,0h-0.004l-0.005,0l-0.003,0c-0.002,0-0.004,0-0.007,0l-0.002,0
		c-0.009,0-0.017-0.001-0.026-0.001l0,0l-0.008,0l-0.001,0l-0.008,0h-0.001c-0.003,0-0.005,0-0.008,0l-0.001,0l-0.007,0l-0.001,0
		l-0.008,0h-0.001c-0.077-0.003-0.152-0.008-0.226-0.012C33.747,39.419,33.568,39.465,33.417,39.563z"/>
	<path fill="#71AADC" d="M50.87,41.766c-0.775,0.501-1.809,0.278-2.309-0.497c-0.39-0.603-0.35-1.388,0.099-1.95
		c0.098-0.125,2.499-3.262,0.482-6.382c-1.377-2.13-3.029-2.564-3.099-2.581c-0.887-0.222-1.435-1.11-1.236-2.002
		c0.201-0.886,1.076-1.447,1.964-1.258c0.306,0.064,3.048,0.736,5.176,4.028c3.336,5.161-0.514,10.076-0.68,10.283
		C51.154,41.547,51.02,41.668,50.87,41.766z"/>
	<path fill="#71AADC" d="M50.87,41.766c-0.775,0.501-1.809,0.278-2.309-0.497c-0.39-0.603-0.35-1.388,0.099-1.95
		c0.098-0.125,2.499-3.262,0.482-6.382c-1.377-2.13-3.029-2.564-3.099-2.581c-0.887-0.222-1.435-1.11-1.236-2.002
		c0.201-0.886,1.076-1.447,1.964-1.258c0.306,0.064,3.048,0.736,5.176,4.028c3.336,5.161-0.514,10.076-0.68,10.283
		C51.154,41.547,51.02,41.668,50.87,41.766z"/>
	<path fill="#3A6DB5" d="M50.418,32.112c-0.677,0.437-1.57,0.327-2.122-0.26c-1.135-1.207-2.207-1.485-2.253-1.496
		c-0.887-0.222-1.435-1.11-1.236-2.002c0.201-0.886,1.076-1.447,1.965-1.258c0.21,0.045,2.103,0.498,3.958,2.468
		c0.632,0.671,0.6,1.727-0.071,2.359c-0.001,0.001-0.001,0.001-0.002,0.002C50.583,31.995,50.503,32.058,50.418,32.112z"/>
	<path fill="#3981C4" d="M60.775,29.395c0.501,0.775,0.279,1.809-0.496,2.31c-0.775,0.501-1.809,0.279-2.31-0.496
		c-0.501-0.775-0.279-1.809,0.496-2.31C59.24,28.399,60.274,28.621,60.775,29.395z"/>
	<path fill="#71AADC" d="M62.915,41.936c0.501,0.775,0.279,1.809-0.496,2.31c-0.775,0.501-1.809,0.279-2.31-0.496
		c-0.501-0.775-0.279-1.809,0.496-2.31C61.38,40.939,62.414,41.161,62.915,41.936z"/>
	<path fill="#CAE3F6" d="M59.074,51.381c0.25,0.387,0.14,0.904-0.248,1.155c-0.387,0.25-0.905,0.139-1.155-0.248
		c-0.25-0.387-0.139-0.905,0.248-1.155C58.307,50.882,58.824,50.994,59.074,51.381z"/>
	<path fill="#CAE3F6" d="M60.066,46.761c0.25,0.387,0.14,0.904-0.248,1.155c-0.388,0.251-0.905,0.139-1.155-0.248
		c-0.25-0.387-0.14-0.904,0.248-1.155C59.299,46.263,59.816,46.374,60.066,46.761z"/>
	<path fill="#E2E9F6" d="M58.876,32.612c0.501,0.775,0.279,1.809-0.496,2.31c-0.775,0.501-1.809,0.279-2.31-0.496
		c-0.501-0.775-0.279-1.809,0.496-2.31C57.341,31.615,58.375,31.837,58.876,32.612z"/>
	<path fill="#71AADC" d="M43.076,35.864c0.25,0.387,0.139,0.904-0.248,1.155c-0.387,0.25-0.904,0.14-1.155-0.248
		c-0.25-0.387-0.139-0.905,0.248-1.155C42.308,35.366,42.826,35.477,43.076,35.864z"/>
	<path fill="#3A6DB5" d="M67.662,33.895c0.25,0.387,0.139,0.905-0.248,1.155c-0.387,0.25-0.904,0.139-1.155-0.248
		c-0.25-0.387-0.14-0.904,0.248-1.155S67.411,33.507,67.662,33.895z"/>
	<path fill="#3A6DB5" d="M68.484,41.32c0.25,0.387,0.14,0.904-0.248,1.155c-0.387,0.25-0.904,0.139-1.155-0.248
		c-0.25-0.387-0.14-0.904,0.248-1.155C67.716,40.821,68.233,40.932,68.484,41.32z"/>
	<path fill="#3A6DB5" d="M69.475,36.7c0.25,0.387,0.139,0.905-0.248,1.155c-0.387,0.25-0.904,0.139-1.155-0.248
		c-0.25-0.387-0.14-0.904,0.248-1.155C68.708,36.202,69.225,36.313,69.475,36.7z"/>
	<path fill="#71AADC" d="M65.182,45.443c0.25,0.387,0.139,0.905-0.248,1.155c-0.387,0.25-0.905,0.139-1.155-0.248
		c-0.25-0.387-0.139-0.904,0.248-1.155C64.414,44.945,64.931,45.056,65.182,45.443z"/>
	<path fill="#71AADC" d="M53.463,55.009c0.25,0.387,0.14,0.904-0.248,1.155c-0.387,0.25-0.905,0.139-1.155-0.248
		c-0.25-0.387-0.139-0.905,0.248-1.155C52.695,54.51,53.212,54.621,53.463,55.009z"/>
	<path fill="#3A6DB5" d="M60.321,28.694c0.25,0.387,0.139,0.904-0.248,1.155c-0.387,0.25-0.904,0.14-1.155-0.248
		c-0.25-0.387-0.14-0.904,0.248-1.155C59.554,28.195,60.071,28.307,60.321,28.694z"/>
	<path fill="#3981C4" d="M50.703,53.816c-1.141-1.766-4.275-2.787-6.2-3.055c-1.161-0.157-2.302,0.398-2.894,1.409
		c-0.62,1.07-0.508,2.413,0.282,3.365c2.143,2.626,5.511,2.405,5.511,2.405c-0.286,1.331-0.738,4.661-0.024,6.085
		c0.745,1.453,2.527,2.026,3.98,1.28c0.798-0.41,1.367-1.16,1.547-2.04c0.611-2.955-0.387-6.644-0.387-6.644
		c-1.403,0.907-2.31-0.496-2.31-0.496S49.3,54.723,50.703,53.816z"/>
	<path fill="#58A0D7" d="M42.542,51.198l-0.006,0.004l-0.003,0.002l-0.02,0.013c-0.016,0.011-0.032,0.022-0.048,0.032l0,0
		c-0.01,0.007-0.02,0.014-0.03,0.021c-0.359,0.263-0.443,0.765-0.188,1.13c0.261,0.375,0.773,0.477,1.158,0.23
		c0.004-0.003,0.007-0.005,0.011-0.008l0.033-0.022c0.244-0.158,0.536-0.224,0.824-0.184c1.225,0.17,2.985,0.696,4.155,1.488
		c0.382,0.259,0.901,0.158,1.16-0.224c0.258-0.381,0.159-0.899-0.221-1.158c-0.166-0.112-0.339-0.219-0.518-0.321l0,0
		c-0.013-0.007-0.025-0.014-0.038-0.021L48.81,52.18c-0.006-0.003-0.012-0.007-0.018-0.01l-0.001,0
		c-0.006-0.003-0.012-0.007-0.018-0.01l-0.001-0.001l-0.006-0.003l-0.001-0.001l-0.011-0.006l-0.002-0.001l-0.005-0.003
		l-0.003-0.002l-0.009-0.005l-0.002-0.001l-0.013-0.007l-0.001,0l-0.01-0.006l-0.003-0.001l-0.005-0.003l-0.003-0.002
		c-0.003-0.001-0.005-0.003-0.008-0.004l-0.003-0.002c-0.002-0.001-0.003-0.002-0.005-0.003l-0.004-0.002
		c-0.002-0.001-0.005-0.002-0.007-0.004l-0.008-0.005c-0.001-0.001-0.003-0.001-0.004-0.002c-0.002-0.001-0.004-0.002-0.006-0.003
		l-0.005-0.003l-0.008-0.005l-0.004-0.002c-0.003-0.001-0.005-0.003-0.007-0.004l-0.004-0.002l-0.005-0.002l-0.004-0.002
		c-0.002-0.001-0.004-0.002-0.006-0.003l-0.005-0.003l-0.005-0.002c-0.001-0.001-0.003-0.001-0.004-0.002l-0.006-0.003L48.59,52.06
		c-0.002-0.001-0.004-0.002-0.007-0.003l-0.004-0.002l-0.005-0.003l-0.003-0.002c-0.003-0.001-0.005-0.003-0.008-0.004l-0.003-0.002
		c-0.002-0.001-0.004-0.002-0.006-0.003l-0.003-0.001l-0.008-0.004l-0.002-0.001c-0.002-0.001-0.005-0.002-0.007-0.004l-0.002-0.001
		c-0.003-0.002-0.005-0.003-0.008-0.004l-0.002-0.001l-0.007-0.004l-0.003-0.001c-0.003-0.001-0.005-0.003-0.007-0.004l-0.002-0.001
		l-0.007-0.004l-0.003-0.002c-0.002-0.001-0.005-0.003-0.007-0.004l-0.001,0c-0.003-0.002-0.006-0.003-0.009-0.004l-0.002-0.001
		c-0.002-0.001-0.005-0.003-0.007-0.004l-0.001-0.001c-0.003-0.001-0.006-0.003-0.009-0.004l-0.001-0.001
		c-0.003-0.001-0.005-0.003-0.008-0.004l-0.001,0l-0.018-0.009l-0.001,0c-0.006-0.003-0.012-0.006-0.018-0.009l-0.001,0
		c-0.006-0.003-0.012-0.006-0.019-0.009l0,0c-0.01-0.005-0.019-0.009-0.029-0.014c-0.006-0.003-0.013-0.006-0.019-0.01l0,0
		c-1.185-0.567-2.446-0.958-3.743-1.159l0,0c-0.005-0.001-0.011-0.002-0.016-0.003l0,0c-0.005-0.001-0.011-0.001-0.016-0.002
		l-0.001,0l-0.007-0.001l0,0c-0.003,0-0.005-0.001-0.008-0.001l-0.001,0l-0.007-0.001l-0.001,0l-0.008-0.001l-0.002,0l-0.006-0.001
		l-0.002,0c-0.003,0-0.005-0.001-0.007-0.001l-0.002,0l-0.006-0.001l-0.002,0c-0.002,0-0.005-0.001-0.007-0.001
		C43.818,50.667,43.122,50.821,42.542,51.198z"/>
	<path fill="#3A6DB5" d="M56.651,26.094c0.501,0.775,0.279,1.809-0.496,2.31c-0.775,0.501-1.809,0.279-2.31-0.496
		c-0.501-0.775-0.279-1.809,0.496-2.31C55.116,25.097,56.15,25.319,56.651,26.094z"/>
	<path fill="#E2E9F6" d="M45.549,41.228c-0.126,0.081-3.126,1.995-5.744,1.433c-0.451-0.097-0.738-0.541-0.641-0.992
		s0.541-0.738,0.992-0.641c1.937,0.416,4.462-1.187,4.488-1.204c0.388-0.25,0.905-0.137,1.154,0.251
		C46.046,40.462,45.935,40.977,45.549,41.228z"/>
	<path fill="#395BA9" d="M49.519,56.409c-0.388,0.251-0.498,0.769-0.248,1.156c0.04,0.062,0.089,0.119,0.144,0.168
		c0.498,0.458,1.125,0.751,1.796,0.838c0.175,1.087,0.323,2.593,0.128,3.946c-0.002,0.013-0.003,0.025-0.005,0.037
		c-0.002,0.012-0.005,0.025-0.006,0.037c-0.018,0.113-0.037,0.224-0.06,0.335c-0.087,0.425-0.381,0.778-0.782,0.94
		c-0.428,0.173-0.634,0.66-0.461,1.087c0.172,0.426,0.657,0.633,1.084,0.463c0.042-0.017,0.084-0.035,0.126-0.055l0,0l0.004-0.002
		l0.001,0l0.004-0.002c0.003-0.001,0.006-0.003,0.009-0.004l0.001,0l0.004-0.002l0.005-0.002l0.001-0.001l0.004-0.002l0.001,0
		l0.005-0.002l0,0l0.004-0.002l0.002-0.001l0.002-0.001l0.005-0.002l0.002-0.001l0.005-0.002l0.007-0.003l0.002-0.001l0.003-0.001
		l0.002-0.001l0.003-0.001l0.001-0.001l0.003-0.002l0.001,0c0.004-0.002,0.007-0.004,0.011-0.005l0,0l0.003-0.001l0.001-0.001
		l0.003-0.001l0.001-0.001l0.003-0.002l0,0c0.004-0.002,0.008-0.004,0.011-0.006l0,0l0.004-0.002l0.001,0l0.003-0.002h0.001
		c0.005-0.003,0.01-0.005,0.015-0.008h0.001l0.003-0.002l0.001,0l0.003-0.002h0.001c0.005-0.003,0.01-0.005,0.015-0.008l0,0
		l0.003-0.002l0.001,0l0.003-0.002l0,0c0.005-0.003,0.01-0.005,0.015-0.008l0,0l0.003-0.002l0.001,0l0.003-0.002h0.001
		c0.005-0.003,0.009-0.005,0.014-0.008l0.001,0l0.003-0.002l0.001-0.001l0.003-0.002l0.001,0c0.003-0.002,0.007-0.004,0.01-0.006
		l0.004-0.003l0.001,0l0.004-0.003l0.003-0.001l0.001-0.001c0.003-0.002,0.007-0.004,0.01-0.006l0.001-0.001l0.003-0.001
		l0.001-0.001l0.003-0.001l0.002-0.001l0.002-0.001l0.002-0.001c0.003-0.002,0.006-0.003,0.009-0.005l0.002-0.001l0.004-0.003
		l0.003-0.001l0.004-0.003l0.002-0.001l0.006-0.004l0.002-0.001l0.006-0.004l0.002-0.001l0.006-0.004l0.002-0.001l0.008-0.005
		l0.002-0.001l0.008-0.005l0.003-0.002l0.011-0.007l0.003-0.001l0.018-0.012l0.002-0.001l0.012-0.008
		c0.668-0.432,1.135-1.114,1.295-1.893l0.003-0.015l0-0.003l0.001-0.003v-0.001c0.001-0.004,0.001-0.008,0.002-0.012l0-0.001
		c0.006-0.03,0.012-0.06,0.018-0.09l0-0.001c0-0.002,0.001-0.005,0.001-0.008l0.001-0.004l0.001-0.003l0-0.002
		c0-0.002,0-0.003,0.001-0.005l0-0.002l0.001-0.004l0-0.002l0.001-0.005l0.001-0.007l0,0c0.015-0.083,0.029-0.166,0.042-0.249
		c0.003-0.015,0.004-0.03,0.006-0.046c0.003-0.015,0.006-0.03,0.008-0.045c0.108-0.815,0.137-1.638,0.086-2.458
		c-0.001-0.019-0.002-0.038-0.003-0.056l0-0.007l0-0.003l0-0.002l0-0.001v-0.003l0-0.001l0-0.007l0-0.001
		c0-0.008-0.001-0.015-0.001-0.023v-0.001l0-0.007l0-0.001l0-0.007l0-0.001l0-0.003l0,0l0-0.005l0-0.003l0-0.001l0-0.003l0-0.001
		c-0.001-0.011-0.001-0.023-0.002-0.035v-0.001l0-0.005v-0.003l0-0.001l0-0.005v-0.001l-0.001-0.008v-0.001l0-0.008l0,0
		c-0.001-0.007-0.001-0.014-0.001-0.021l0-0.003l0-0.003l0-0.001l0-0.003l0-0.001l0-0.002l0-0.003v-0.001l0-0.003l0-0.001v-0.004
		l0,0c0-0.004,0-0.008-0.001-0.013l0,0l0-0.004l0,0c0-0.004-0.001-0.008-0.001-0.012l0,0l0-0.004l0,0c0-0.001,0-0.003,0-0.004
		v-0.001l-0.001-0.007l0-0.002c-0.001-0.011-0.002-0.022-0.003-0.033l0-0.002l0-0.003l0-0.004c0-0.006-0.001-0.011-0.001-0.017l0,0
		l0-0.003v-0.002l0-0.002l0-0.002c-0.001-0.009-0.001-0.019-0.002-0.029l0,0l0-0.004l0-0.002l0-0.002l0-0.004v-0.001l-0.001-0.008
		l0,0c0-0.003-0.001-0.005-0.001-0.008l0-0.001l0-0.006l0-0.004c-0.001-0.01-0.002-0.021-0.003-0.031V59.83
		c-0.089-1.082-0.266-2.155-0.53-3.209l-0.005,0.004c-0.878,0.564-1.56,0.224-1.948-0.107l0,0l-0.002-0.002l-0.005-0.004l0,0
		l-0.002-0.002l-0.001,0l-0.002-0.002l0,0l-0.002-0.002l-0.001,0l-0.002-0.002l-0.003-0.002l-0.002-0.002l-0.001-0.001l-0.001-0.001
		l-0.001-0.001l-0.001-0.001l-0.001-0.001l-0.001-0.001l-0.002-0.002l-0.001-0.001l-0.001-0.001l-0.003-0.002l-0.001-0.001
		C50.249,56.237,49.835,56.205,49.519,56.409z"/>
	<path fill="#58A0D7" d="M47.688,53.769l1.403-0.907c0.387-0.25,0.905-0.139,1.155,0.248c0.25,0.387,0.139,0.905-0.248,1.155
		l-1.403,0.907c-0.387,0.25-0.905,0.139-1.155-0.248C47.19,54.536,47.301,54.019,47.688,53.769z"/>
	<path fill="#395BA9" d="M48.099,57.481l1.403-0.907c0.387-0.25,0.905-0.139,1.155,0.248c0.25,0.387,0.139,0.904-0.248,1.155
		l-1.403,0.907c-0.387,0.25-0.904,0.14-1.155-0.248C47.601,58.249,47.712,57.732,48.099,57.481z"/>
	<path fill="#395BA9" d="M48.51,61.194l2.806-1.814c0.387-0.25,0.904-0.139,1.155,0.248c0.25,0.387,0.14,0.904-0.248,1.155
		l-2.806,1.814c-0.387,0.25-0.904,0.14-1.155-0.248C48.012,61.962,48.123,61.444,48.51,61.194z"/>
	<path fill="#58A0D7" d="M41.666,53.684l2.806-1.814c0.387-0.25,0.905-0.139,1.155,0.248c0.25,0.387,0.139,0.905-0.248,1.155
		l-2.806,1.814c-0.387,0.25-0.904,0.139-1.155-0.248C41.168,54.451,41.278,53.934,41.666,53.684z"/>
	<path fill="#58A0D7" d="M45.131,54.427c0.251,0.388,0.139,0.905-0.248,1.155c-0.387,0.25-0.904,0.14-1.155-0.248
		c-0.25-0.387-0.139-0.904,0.248-1.155C44.363,53.929,44.88,54.04,45.131,54.427z"/>
	<path fill="#395BA9" d="M48.758,60.039c0.25,0.387,0.139,0.905-0.248,1.155c-0.387,0.25-0.905,0.139-1.155-0.248
		c-0.25-0.387-0.139-0.904,0.248-1.155C47.991,59.541,48.508,59.652,48.758,60.039z"/>
</g>
</svg>
